<svg width="178" height="200" viewBox="0 0 178 200" fill="none" xmlns="http://www.w3.org/2000/svg">
<g id="Illustration">
<path id="Vector" d="M66.2044 197.524H16.8166C16.7636 197.524 16.7128 197.503 16.6754 197.466C16.6379 197.428 16.6169 197.377 16.6169 197.325C16.6169 197.272 16.6379 197.221 16.6754 197.183C16.7128 197.146 16.7636 197.125 16.8166 197.125H66.2044C66.2574 197.125 66.3082 197.146 66.3456 197.183C66.3831 197.221 66.4041 197.272 66.4041 197.325C66.4041 197.377 66.3831 197.428 66.3456 197.466C66.3082 197.503 66.2574 197.524 66.2044 197.524Z" fill="#1F1F1F"/>
<path id="Vector_2" d="M62.7998 200H43.1339C43.0809 200 43.0301 199.979 42.9926 199.942C42.9552 199.904 42.9341 199.853 42.9341 199.8C42.9341 199.747 42.9552 199.697 42.9926 199.659C43.0301 199.622 43.0809 199.601 43.1339 199.601H62.7952C62.8481 199.6 62.8992 199.621 62.9371 199.658C62.975 199.695 62.9966 199.745 62.9972 199.798C62.9978 199.851 62.9774 199.902 62.9404 199.94C62.9033 199.978 62.8528 200 62.7998 200Z" fill="#1F1F1F"/>
<path id="Vector_3" d="M177.367 197.524H127.98C127.927 197.524 127.876 197.503 127.838 197.466C127.801 197.428 127.78 197.377 127.78 197.325C127.78 197.272 127.801 197.221 127.838 197.183C127.876 197.146 127.927 197.125 127.98 197.125H177.367C177.42 197.125 177.471 197.146 177.509 197.183C177.546 197.221 177.567 197.272 177.567 197.325C177.567 197.377 177.546 197.428 177.509 197.466C177.471 197.503 177.42 197.524 177.367 197.524Z" fill="#1F1F1F"/>
<path id="Vector_4" d="M154.766 200H135.1C135.047 200 134.996 199.979 134.959 199.942C134.921 199.904 134.9 199.853 134.9 199.8C134.9 199.747 134.921 199.697 134.959 199.659C134.996 199.622 135.047 199.601 135.1 199.601H154.761C154.814 199.6 154.865 199.621 154.903 199.658C154.941 199.695 154.963 199.745 154.963 199.798C154.964 199.851 154.943 199.902 154.906 199.94C154.869 199.978 154.819 200 154.766 200Z" fill="#1F1F1F"/>
<path id="Vector_5" d="M0.0165147 195.388C0.0165147 195.388 -0.215723 187.956 1.06159 185.169C2.3389 182.382 3.73233 174.022 6.28695 171.119C8.84157 168.216 12.7896 159.623 13.7186 150.45C14.6475 141.276 16.5054 127.923 21.6147 128.039C26.7239 128.155 25.6788 140.463 27.6529 145.573C29.6269 150.682 32.0654 152.54 31.8331 161.365C31.6009 170.19 40.5421 172.745 41.3549 180.989L42.4 195.388H0.0165147Z" fill="#1F1F1F"/>
<path id="Vector_6" d="M5.35793 195.388C5.35793 195.388 5.24181 189.117 8.02867 183.311C10.8155 177.505 9.42209 172.048 11.28 167.171C13.1379 162.294 9.7751 153.055 13.8346 149.312C17.8941 145.568 21.4985 153.929 21.963 161.713C22.4274 169.498 26.6077 169.725 27.3044 176.693C28.0012 183.66 31.6008 184.017 34.0393 188.193C36.4778 192.369 36.1295 195.388 36.1295 195.388H5.35793Z" fill="#545454"/>
<path id="Vector_7" d="M125.773 199.8H68.9912L73.636 188.537C73.636 188.537 74.2212 186.052 74.7321 183.688C75.0605 182.338 75.3147 180.972 75.4939 179.595C75.6416 179.121 75.866 178.674 76.1581 178.272C77.4772 176.117 80.4916 171.918 82.605 169.015C83.9288 167.203 84.8995 165.893 84.8995 165.893L92.7399 165.629C96.8644 165.485 101.184 165.048 102.094 165.029H102.243C104.416 164.679 106.564 164.184 108.671 163.548C110.306 163.051 111.607 162.647 111.607 162.647L117.529 165.317C117.529 165.317 117.469 165.852 117.371 166.711L116.832 171.504C116.535 174.184 116.252 176.762 116.252 176.925C116.252 177.273 125.773 199.8 125.773 199.8Z" fill="#545454"/>
<path id="Vector_8" d="M101.426 199.8H94.8999C94.4354 197.204 93.813 194.083 93.5064 193.182C92.9258 191.556 88.5133 187.84 87.1199 187.259C85.8658 186.735 76.7853 184.329 74.7462 183.688C75.0698 182.338 75.3195 180.972 75.494 179.596C75.6418 179.121 75.8661 178.674 76.1582 178.272C79.6279 178.922 86.0562 180.19 88.3832 181.105C91.6346 182.382 97.3244 188.421 98.6017 190.395C99.3588 191.565 100.576 196.215 101.426 199.8Z" fill="#1F1F1F"/>
<path id="Vector_9" d="M117.371 166.688L116.833 171.504C113.184 170.751 109.637 169.569 106.266 167.984C104.807 167.268 103.353 166.042 102.085 165.03H102.234C104.407 164.679 106.555 164.184 108.662 163.548C111.317 165.185 114.283 166.254 117.371 166.688Z" fill="#1F1F1F"/>
<path id="Vector_10" d="M117.822 199.8H111.723C110.023 194.751 107.176 186.757 105.472 184.356C102.917 180.756 95.6014 173.441 92.2339 171.931C90.0741 170.965 85.5733 169.758 82.6239 169.014C83.9477 167.203 84.9184 165.893 84.9184 165.893L92.7588 165.628C96.8415 166.896 101.277 168.601 103.149 170.422C106.981 174.138 112.555 181.569 113.948 185.633C114.756 188.044 116.521 194.746 117.822 199.8Z" fill="#1F1F1F"/>
<path id="Vector_11" d="M20.76 35.6307C20.76 35.6307 18.7396 40.2755 17.6295 42.0359C16.5194 43.7962 17.9778 44.4744 21.5264 40.7121C25.075 36.9499 32.7342 28.3896 36.5615 24.841C40.3888 21.2924 43.5937 19.7596 43.3847 17.8738C43.1757 15.988 40.4631 18.5705 38.4426 19.4762C36.4222 20.382 34.1973 20.2426 31.011 21.3342C27.8247 22.4257 27.8805 24.186 27.7597 26.1368C27.6389 28.0876 26.5056 27.9483 24.5594 27.5303C22.6133 27.1122 19.3666 28.5335 20.76 35.6307Z" fill="#EEEEEE"/>
<path id="Vector_12" d="M79.4561 29.5694C80.3851 30.647 93.9431 17.2237 99.8652 12.0587C105.787 6.8937 112.592 2.86204 113.976 0.720802C115.36 -1.42044 108.43 1.85413 107.171 2.235C105.913 2.61587 104.779 0.720802 101.133 1.60331C97.4871 2.48581 98.2349 5.38415 97.6032 6.01119C96.9715 6.63823 92.689 5.76037 90.297 7.90161C87.9049 10.0428 89.4145 13.3174 88.9036 14.4554C88.3926 15.5933 84.9973 15.4633 83.4878 16.9775C81.9782 18.4917 82.8561 19.7643 83.6132 22.0171C84.3703 24.2698 78.072 27.9252 79.4561 29.5694Z" fill="#EEEEEE"/>
<path id="Vector_13" d="M124.728 36.6526C128.384 36.6526 131.347 33.6893 131.347 30.0338C131.347 26.3784 128.384 23.4151 124.728 23.4151C121.073 23.4151 118.11 26.3784 118.11 30.0338C118.11 33.6893 121.073 36.6526 124.728 36.6526Z" fill="#CB3635"/>
<path id="Vector_14" d="M120.493 76.4816C119.099 76.4816 121.134 74.1035 122.467 72.0691C123.8 70.0347 123.28 67.1363 125.486 66.4396C127.692 65.7429 129.086 64.4656 128.798 61.8552C128.51 59.2449 129.61 54.3075 135.184 55.5848C135.184 55.5848 135.825 53.0906 138.728 53.6108C141.631 54.131 144.999 51.6971 147.381 50.1876C149.764 48.678 149.936 49.5513 148.138 51.3488C146.341 53.1463 131.928 66.0309 128.328 69.2822C124.729 72.5336 121.189 76.4816 120.493 76.4816Z" fill="#EEEEEE"/>
<path id="Vector_15" d="M136.145 168.68C136.145 168.68 143.925 180.562 142.183 197.324H138.384C138.384 197.324 132.545 183.892 136.145 168.68Z" fill="#545454"/>
<path id="Vector_16" d="M140.367 197.524C140.319 197.523 140.274 197.506 140.238 197.474C140.202 197.443 140.179 197.399 140.172 197.352L136.842 174.825C136.834 174.773 136.847 174.719 136.878 174.676C136.91 174.634 136.957 174.605 137.009 174.597C137.061 174.589 137.115 174.602 137.157 174.634C137.2 174.665 137.229 174.712 137.237 174.765L140.567 197.292C140.575 197.344 140.562 197.397 140.53 197.44C140.499 197.483 140.452 197.511 140.4 197.519H140.372L140.367 197.524Z" fill="#1F1F1F"/>
<path id="Vector_17" d="M149.894 160.705C149.894 160.705 153.215 175.721 143.159 197.32H139.355C139.355 197.32 139.355 179.981 149.894 160.705Z" fill="#1F1F1F"/>
<path id="Vector_18" d="M141.338 197.524H141.292C141.266 197.518 141.242 197.507 141.221 197.492C141.199 197.476 141.181 197.457 141.167 197.434C141.154 197.412 141.144 197.387 141.14 197.361C141.136 197.335 141.137 197.308 141.143 197.283L147.86 168.485C147.865 168.459 147.876 168.434 147.891 168.413C147.906 168.391 147.926 168.373 147.948 168.359C147.971 168.345 147.996 168.336 148.022 168.332C148.049 168.328 148.076 168.329 148.101 168.336C148.127 168.342 148.151 168.353 148.172 168.369C148.194 168.384 148.212 168.404 148.226 168.426C148.24 168.449 148.249 168.474 148.253 168.5C148.257 168.526 148.256 168.552 148.25 168.578L141.533 197.375C141.522 197.418 141.497 197.456 141.461 197.483C141.426 197.51 141.383 197.525 141.338 197.524Z" fill="#545454"/>
<path id="Vector_19" d="M163.484 160.705C163.484 160.705 165.602 177.115 146.024 197.32H142.22C142.22 197.32 144.886 176.344 163.484 160.705Z" fill="#545454"/>
<path id="Vector_20" d="M144.209 197.524C144.178 197.531 144.146 197.531 144.116 197.524C144.069 197.499 144.034 197.457 144.018 197.407C144.002 197.356 144.007 197.302 144.032 197.255L159.183 168.457C159.195 168.433 159.211 168.411 159.231 168.392C159.251 168.374 159.275 168.361 159.3 168.352C159.326 168.343 159.353 168.34 159.38 168.342C159.407 168.344 159.434 168.352 159.458 168.364C159.482 168.377 159.503 168.394 159.52 168.415C159.537 168.436 159.549 168.461 159.557 168.487C159.564 168.513 159.566 168.54 159.563 168.567C159.559 168.594 159.55 168.62 159.536 168.643L144.385 197.441C144.365 197.468 144.339 197.491 144.308 197.505C144.277 197.52 144.243 197.526 144.209 197.524Z" fill="#1F1F1F"/>
<path id="Vector_21" d="M148.417 197.325C148.417 197.325 153.447 189.972 157.553 189.893C161.659 189.814 158.868 194.226 158.868 194.226C158.868 194.226 161.738 192.754 163.554 193.298C165.37 193.841 163.554 195.931 163.554 195.931C163.554 195.931 168.315 194.849 166.457 197.325H148.417Z" fill="#1F1F1F"/>
<path id="Vector_22" d="M164.539 187.607C162.681 187.607 161.464 191.151 163.554 190.743C165.644 190.334 166.397 187.607 164.539 187.607Z" fill="#1F1F1F"/>
<path id="Vector_23" d="M167.925 192.108C166.666 191.778 165.217 193.966 166.703 194.059C168.189 194.152 169.165 192.438 167.925 192.108Z" fill="#1F1F1F"/>
<path id="Vector_24" d="M133.466 107.513C133.466 107.513 131.784 104.726 129.025 103.333L128.008 104.174C128.008 104.174 132.188 109.255 132.741 115.321L133.466 107.513Z" fill="#545454"/>
<path id="Vector_25" d="M147.604 101.563C143.639 104.773 140.327 108.715 137.85 113.175C137.279 117.82 136.772 122.353 136.456 125.855C135.565 136.863 129.373 194.681 129.373 194.681H125.007C125.007 194.681 132.471 112.557 133.168 107.448C133.865 102.339 134.831 91.0567 134.831 91.0567L142.69 86.5559C142.69 86.5559 141.603 89.6401 141.018 91.6652C140.739 92.622 139.907 97.9356 139.016 104.429L145.11 98.3908L147.604 101.563Z" fill="#545454"/>
<path id="Vector_26" d="M145.109 98.3722C145.109 98.3722 147.26 98.4326 147.608 101.568C147.604 101.563 144.728 101.275 145.109 98.3722Z" fill="#1F1F1F"/>
<path id="Vector_27" d="M134.831 91.0567C134.831 91.0567 137.59 91.5491 138.403 91.2564C139.216 90.9638 142.69 86.5559 142.69 86.5559L134.831 91.0567Z" fill="#1F1F1F"/>
<path id="Vector_28" d="M131.849 158.044H131.812C131.786 158.039 131.761 158.029 131.739 158.015C131.717 158.001 131.697 157.983 131.682 157.961C131.667 157.94 131.657 157.915 131.651 157.89C131.645 157.864 131.645 157.837 131.649 157.811C131.649 157.714 133.428 147.793 133.582 143.747C133.698 140.602 133.637 131.671 133.582 126.891C133.582 125.395 133.582 124.244 133.582 123.705C133.582 122.2 133.962 119.524 134.404 116.464C134.655 114.726 134.91 112.929 135.133 111.122C135.746 106.138 136.749 92.9332 136.759 92.7985C136.762 92.7455 136.787 92.6962 136.827 92.6614C136.867 92.6265 136.919 92.609 136.972 92.6127C137.025 92.6164 137.075 92.641 137.109 92.6811C137.144 92.7211 137.162 92.7734 137.158 92.8264C137.158 92.9611 136.146 106.171 135.532 111.169C135.309 112.98 135.068 114.778 134.803 116.515C134.367 119.58 133.986 122.223 133.986 123.7C133.986 124.239 133.986 125.386 133.986 126.882C134.023 131.675 134.083 140.602 133.986 143.756C133.832 147.825 132.067 157.774 132.049 157.872C132.042 157.92 132.018 157.964 131.981 157.995C131.945 158.027 131.898 158.044 131.849 158.044Z" fill="#1F1F1F"/>
<path id="Vector_29" d="M128.156 168.936H128.128C128.076 168.928 128.029 168.899 127.997 168.857C127.966 168.814 127.953 168.76 127.961 168.708C127.961 168.555 130.195 153.334 130.91 147.365C131.626 141.397 132.499 125.321 132.508 125.159C132.512 125.106 132.535 125.057 132.574 125.022C132.613 124.986 132.664 124.967 132.717 124.968C132.743 124.97 132.769 124.976 132.793 124.987C132.817 124.998 132.838 125.014 132.856 125.033C132.873 125.053 132.887 125.076 132.896 125.1C132.905 125.125 132.909 125.151 132.908 125.177C132.908 125.34 132.025 141.434 131.305 147.407C130.585 153.38 128.379 168.606 128.356 168.773C128.347 168.819 128.322 168.861 128.285 168.891C128.249 168.921 128.203 168.937 128.156 168.936Z" fill="#1F1F1F"/>
<path id="Vector_30" d="M129.062 194.259C129.01 194.259 128.961 194.239 128.924 194.204C128.887 194.169 128.864 194.12 128.862 194.069C128.83 193.46 128.096 179.066 128.862 174.76C129.47 171.227 129.858 167.659 130.023 164.077C130.014 164.026 130.025 163.972 130.054 163.929C130.084 163.885 130.13 163.855 130.181 163.845C130.206 163.84 130.233 163.84 130.258 163.844C130.284 163.849 130.308 163.859 130.329 163.873C130.351 163.887 130.37 163.906 130.384 163.927C130.398 163.949 130.408 163.973 130.413 163.999C130.502 164.43 130.023 170.501 129.252 174.835C128.481 179.168 129.252 193.906 129.252 194.055C129.253 194.081 129.25 194.107 129.241 194.132C129.232 194.157 129.218 194.179 129.2 194.199C129.183 194.218 129.161 194.234 129.138 194.245C129.114 194.256 129.088 194.263 129.062 194.264V194.259Z" fill="#1F1F1F"/>
<path id="Vector_31" d="M42.8272 111.782L38.9767 114.513C38.9767 114.513 35.8601 124.634 59.0839 124.327C82.3077 124.021 96.7437 110.588 94.4817 100.351L88.0951 97.9728L42.8272 111.782Z" fill="#141414"/>
<path id="Vector_32" d="M74.0213 93.0494C74.0213 93.0494 103.748 110.621 104.523 111.628C105.299 112.636 106.46 117.82 106.46 118.907C106.46 119.994 92.7583 144.996 92.7583 144.996C92.7583 144.996 87.0313 143.835 87.0313 143.603C87.0313 143.371 93.3807 119.529 93.3807 119.529C93.3807 119.529 70.8536 115.581 60.4028 110.086C49.9521 104.592 58.1548 86.0822 74.0213 93.0494Z" fill="#1F1F1F"/>
<path id="Vector_33" d="M90.1251 142.79H90.0601C90.0104 142.773 89.9695 142.737 89.946 142.691C89.9225 142.644 89.9185 142.589 89.9347 142.539L96.9808 121.406C96.9951 121.364 97.0229 121.328 97.0598 121.304C97.8402 120.812 98.5838 120.264 99.2846 119.664C98.0461 119.591 96.8038 119.615 95.5688 119.734C95.5246 119.737 95.4806 119.726 95.4436 119.701C95.4066 119.677 95.3787 119.641 95.3644 119.599C95.3499 119.557 95.3498 119.511 95.3641 119.469C95.3784 119.427 95.4063 119.391 95.4434 119.367C96.8368 118.438 99.1035 116.789 99.3125 116.213C99.0942 115.939 96.5628 116.041 94.3379 116.324C94.3039 116.328 94.2695 116.323 94.2379 116.31C94.2062 116.297 94.1784 116.277 94.1568 116.25C94.1349 116.223 94.1204 116.191 94.1147 116.157C94.109 116.123 94.1123 116.087 94.1243 116.055C94.3101 115.558 94.742 114.16 94.5145 113.654C93.9664 113.064 80.2504 107.416 71.1652 103.77C71.1159 103.75 71.0765 103.711 71.0556 103.663C71.0347 103.614 71.034 103.559 71.0537 103.509C71.0735 103.46 71.1119 103.421 71.1607 103.4C71.2095 103.379 71.2646 103.378 71.3138 103.398C76.7622 105.586 94.5377 112.771 94.8767 113.486C95.1415 114.076 94.7931 115.302 94.6027 115.883C95.9961 115.72 99.1685 115.419 99.6283 115.981C99.669 116.031 99.6956 116.09 99.7054 116.154C99.7152 116.218 99.7078 116.283 99.6841 116.343C99.4332 117.035 97.3617 118.531 96.2748 119.278C98.3975 119.148 99.554 119.199 99.7305 119.436C99.7564 119.47 99.7731 119.51 99.7788 119.553C99.7845 119.595 99.779 119.638 99.763 119.678C99.6051 120.077 97.9423 121.197 97.3477 121.591L90.3249 142.66C90.31 142.7 90.2825 142.735 90.2465 142.758C90.2106 142.782 90.168 142.793 90.1251 142.79Z" fill="#545454"/>
<path id="Vector_34" d="M87.4912 143.171L85.9027 151.842C85.9027 151.842 89.5395 152.618 89.5395 152.502C89.5395 152.386 92.2149 144.411 92.2149 144.411L87.4912 143.171Z" fill="#FCD9B5"/>
<path id="Vector_35" d="M107.506 162.772C107.445 163.868 107.31 164.732 107.31 164.732L94.4863 165.568C94.2169 164.439 93.7431 163.506 92.9117 163.65C92.0803 163.794 91.8387 164.621 91.8016 165.647L84.2817 166.088C84.2817 166.088 84.1424 165.21 83.9891 163.766C83.664 160.737 83.2877 155.229 84.0495 150.296C86.4853 149.869 88.9798 149.905 91.4021 150.403C92.2204 150.593 93.0127 150.882 93.7617 151.262C93.7617 151.262 92.7166 154.783 92.8327 155.131C92.9488 155.48 97.6726 157.649 99.8788 158.034C100.074 158.071 100.278 158.095 100.487 158.113C102.591 158.28 105.132 157.612 106.577 158.424C107.543 158.959 107.603 161.123 107.506 162.772Z" fill="#333333"/>
<path id="Vector_36" d="M99.4979 160.018C98.8198 160.018 91.5693 157.593 90.4546 156.655C90.3948 156.614 90.3443 156.562 90.3067 156.5C90.269 156.438 90.245 156.369 90.2363 156.297C90.2363 155.833 90.6729 153.297 91.0398 151.272C91.0413 151.243 91.0487 151.216 91.0617 151.191C91.0747 151.165 91.0929 151.143 91.1151 151.126C91.1372 151.108 91.1629 151.095 91.1904 151.088C91.2179 151.081 91.2465 151.08 91.2744 151.085C91.3023 151.09 91.3288 151.101 91.3522 151.117C91.3755 151.133 91.3952 151.154 91.4099 151.178C91.4247 151.202 91.4341 151.23 91.4375 151.258C91.441 151.286 91.4384 151.314 91.43 151.341C90.9237 154.128 90.6311 155.949 90.6311 156.297C90.9237 156.883 98.6247 159.623 99.4561 159.623C99.4561 159.623 99.5583 159.516 99.8649 158.926C99.8748 158.9 99.8901 158.876 99.9099 158.856C99.9297 158.836 99.9536 158.82 99.9799 158.81C100.006 158.8 100.034 158.795 100.062 158.797C100.091 158.798 100.118 158.806 100.143 158.819C100.168 158.831 100.19 158.85 100.208 158.872C100.225 158.894 100.238 158.919 100.245 158.946C100.252 158.974 100.254 159.002 100.249 159.03C100.244 159.058 100.234 159.084 100.218 159.107C99.8463 159.827 99.6744 159.99 99.5119 160.036H99.484L99.4979 160.018Z" fill="#545454"/>
<path id="Vector_37" d="M107.506 162.772C107.445 163.868 107.311 164.732 107.311 164.732L94.4864 165.568C94.217 164.44 93.7432 163.506 92.9118 163.65C92.0804 163.794 91.8388 164.621 91.8017 165.647L84.2818 166.088C84.2818 166.088 84.1425 165.211 83.9892 163.766L107.506 162.772Z" fill="#1F1F1F"/>
<path id="Vector_38" d="M85.9446 140.115C85.9446 140.115 93.0279 141.429 96.8041 142.265L93.7664 147.937C90.7518 148.104 87.7347 147.655 84.8995 146.618L85.9446 140.115Z" fill="#EEEEEE"/>
<path id="Vector_39" d="M43.4218 170.19L43.3057 180.352H47.486L47.8343 170.25L43.4218 170.19Z" fill="#FCD9B5"/>
<path id="Vector_40" d="M51.2624 193.585C51.2624 193.585 50.287 194.31 49.0515 195.165C48.9957 194.5 48.8982 193.878 48.7078 193.878C48.4337 193.878 48.3408 194.965 48.313 195.671C46.9195 196.6 45.4332 197.529 44.639 197.826C42.9576 198.407 33.4915 197.886 33.4915 197.886C33.4915 197.886 33.3708 196.911 33.3289 195.638C33.2639 193.883 33.3568 191.565 34.1325 190.455C35.4702 188.536 38.7773 188.42 38.7773 188.42C38.7773 188.42 41.2761 183.023 41.3876 182.438C41.4991 181.853 40.6909 178.899 40.6909 178.899C43.7231 178.238 46.8459 178.099 49.9247 178.49L49.228 181.918C49.228 181.918 50.2823 186.66 50.9558 191.258C51.072 192.048 51.1788 192.828 51.2624 193.585Z" fill="#333333"/>
<path id="Vector_41" d="M41.9125 189.549C41.8606 189.549 41.8106 189.529 41.7732 189.493C41.1275 188.991 40.3423 188.7 39.5251 188.662C39.4771 188.651 39.4347 188.623 39.4059 188.584C39.3772 188.544 39.3642 188.495 39.3693 188.446C39.3745 188.397 39.3975 188.352 39.434 188.319C39.4704 188.286 39.5178 188.267 39.5669 188.267C40.3772 188.327 41.1589 188.592 41.8382 189.038L44.7087 182.651C43.7901 182.477 42.85 182.445 41.9218 182.559C41.8718 182.561 41.8226 182.544 41.7842 182.512C41.7458 182.48 41.7209 182.434 41.7145 182.385C41.7081 182.335 41.7206 182.285 41.7495 182.244C41.7784 182.203 41.8217 182.174 41.8707 182.164C42.9292 182.038 44.0011 182.088 45.0431 182.312C45.0728 182.318 45.1007 182.331 45.1249 182.349C45.1491 182.367 45.1688 182.39 45.1827 182.417C45.1965 182.444 45.2041 182.473 45.2049 182.503C45.2057 182.534 45.1996 182.564 45.1871 182.591L42.1076 189.442C42.0948 189.472 42.075 189.498 42.0499 189.518C42.0248 189.538 41.9952 189.552 41.9636 189.558H41.9125V189.549Z" fill="#545454"/>
<path id="Vector_42" d="M51.2621 193.586C51.2621 193.586 50.2867 194.31 49.0511 195.165C48.9954 194.501 48.8979 193.878 48.7074 193.878C48.4334 193.878 48.3405 194.965 48.3126 195.671C46.9192 196.6 45.4329 197.529 44.6386 197.826C42.9572 198.407 33.4912 197.887 33.4912 197.887C33.4912 197.887 33.3704 196.911 33.3286 195.639C36.1155 195.82 43.3056 196.247 44.0116 195.968C44.7176 195.69 49.0651 192.61 50.9787 191.259C51.0716 192.048 51.1784 192.828 51.2621 193.586Z" fill="#1F1F1F"/>
<path id="Vector_43" d="M44.9919 108.53C44.9919 108.53 43.7517 136.71 43.134 144.295C42.5162 151.88 42.3351 171.081 42.3351 171.081C42.3351 171.081 48.22 171.392 48.3733 170.928C48.5266 170.463 55.6748 146.311 55.986 143.059C56.2972 139.808 67.598 114.108 69.3026 104.972C71.0072 95.836 49.4834 86.2353 44.9919 108.53Z" fill="#1F1F1F"/>
<path id="Vector_44" d="M47.4861 169.051C47.4339 169.046 47.386 169.019 47.353 168.978C47.32 168.938 47.3044 168.885 47.3096 168.833C48.206 160.77 50.8396 152.878 51.5595 150.83C51.0672 151.09 50.3844 151.387 50.0453 151.239C49.9865 151.213 49.9348 151.174 49.8951 151.124C49.8553 151.073 49.8288 151.014 49.8177 150.951C49.7016 150.365 51.0161 147.653 51.4063 146.868C48.5079 143.031 48.6751 142.688 48.7309 142.576C48.7866 142.465 48.9724 142.112 52.8786 143.115C58.0761 117.569 60.7747 104.308 60.7747 104.308C60.778 104.281 60.7868 104.254 60.8008 104.23C60.8148 104.206 60.8335 104.186 60.8559 104.17C60.8783 104.153 60.9037 104.142 60.9307 104.136C60.9577 104.13 60.9857 104.13 61.0127 104.135C61.0398 104.141 61.0655 104.152 61.088 104.168C61.1106 104.184 61.1297 104.204 61.144 104.228C61.1583 104.251 61.1675 104.278 61.1711 104.305C61.1747 104.333 61.1726 104.36 61.1649 104.387C61.1649 104.387 58.457 117.741 53.2317 143.403C53.2265 143.43 53.216 143.455 53.2009 143.477C53.1857 143.499 53.1661 143.518 53.1434 143.533C53.1201 143.548 53.094 143.557 53.0669 143.561C53.0397 143.565 53.012 143.563 52.9855 143.556C51.7261 143.186 50.4358 142.931 49.1303 142.795C49.3161 143.296 50.5841 145.117 51.8011 146.729C51.8204 146.76 51.8306 146.796 51.8306 146.833C51.8306 146.87 51.8204 146.906 51.8011 146.938C50.9604 148.619 50.1289 150.551 50.194 150.872C50.3333 150.96 51.1229 150.649 51.8103 150.217C51.8459 150.194 51.8877 150.184 51.9296 150.186C51.9716 150.189 52.0116 150.205 52.044 150.232C52.0765 150.259 52.0996 150.295 52.1102 150.336C52.1208 150.376 52.1183 150.419 52.103 150.458C52.0705 150.551 48.7262 159.604 47.6951 168.875C47.6893 168.925 47.6644 168.972 47.6255 169.005C47.5867 169.037 47.5368 169.054 47.4861 169.051Z" fill="#545454"/>
<path id="Vector_45" d="M40.4028 167.17L51.4945 167.347L50.101 174.142L41.5082 174.319C41.5082 174.319 40.8672 170.018 40.4028 167.17Z" fill="#EEEEEE"/>
<path id="Vector_46" d="M32.9945 41.7249C32.9945 41.7249 28.0385 47.9954 29.1997 56.1237C30.3609 64.252 35.7024 66.8856 35.7024 66.8856C35.7024 66.8856 55.9071 61.7764 61.0953 61.7764C66.2835 61.7764 74.4862 63.402 74.4862 63.402C74.4862 63.402 77.0408 56.4349 76.8875 51.4046C76.7342 46.3743 73.1717 42.3473 72.9395 42.3473C72.7072 42.3473 64.6579 43.4295 57.2262 43.894C49.7946 44.3585 32.9945 41.7249 32.9945 41.7249Z" fill="#141414"/>
<path id="Vector_47" d="M36.7103 65.8218C36.6769 65.8218 36.6439 65.8133 36.6146 65.7972C36.5852 65.7811 36.5604 65.7579 36.5423 65.7296C36.5243 65.7014 36.5136 65.6691 36.5113 65.6357C36.509 65.6023 36.5152 65.5689 36.5292 65.5385C39.0002 60.2806 39.7527 56.0167 38.8516 52.496C37.8576 48.6687 34.4855 44.8739 33.6402 43.9635C33.0503 45.1758 30.57 50.429 30.4213 53.4388C30.2541 56.8156 33.5101 62.1896 35.159 62.7005C35.2296 62.7223 35.3048 62.7247 35.3767 62.7075C35.4486 62.6904 35.5145 62.6543 35.5677 62.603C36.6546 61.7158 37.1516 56.5416 36.9333 54.3771C36.7011 52.0547 34.6481 48.7151 34.1186 48.5711C33.6541 48.7616 32.1074 53.4063 32.1074 54.7069C32.1074 55.7612 34.2904 58.2276 34.8524 58.5156C35.2147 58.1858 35.6513 55.0134 35.3727 53.9451C35.1888 53.337 34.8804 52.7739 34.4669 52.2916C34.1295 53.0977 33.921 53.952 33.8492 54.823C33.8492 54.876 33.8281 54.9268 33.7907 54.9642C33.7532 55.0017 33.7024 55.0227 33.6495 55.0227C33.5965 55.0227 33.5457 55.0017 33.5082 54.9642C33.4708 54.9268 33.4497 54.876 33.4497 54.823C33.5442 53.7939 33.8046 52.7869 34.2208 51.841C34.2338 51.8111 34.254 51.7849 34.2796 51.7646C34.3051 51.7443 34.3352 51.7306 34.3673 51.7246C34.3994 51.7187 34.4324 51.7207 34.4636 51.7304C34.4947 51.7402 34.523 51.7575 34.5459 51.7807C35.1059 52.3636 35.5212 53.07 35.7582 53.8429C36.009 54.8044 35.7071 58.288 35.1033 58.8221C35.0558 58.8687 34.9959 58.9004 34.9308 58.9136C34.8657 58.9268 34.7981 58.9209 34.7363 58.8964C34.1046 58.6456 31.7079 55.9795 31.7079 54.7162C31.7079 53.699 33.0735 48.9009 33.8956 48.2785C33.9398 48.239 33.9928 48.2107 34.0502 48.1962C34.1077 48.1816 34.1678 48.1812 34.2254 48.1949C35.0104 48.4086 37.1052 52.064 37.3327 54.3492C37.5278 56.3093 37.1377 61.8505 35.8232 62.9235C35.7187 63.0165 35.5919 63.0808 35.4551 63.1101C35.3183 63.1394 35.1763 63.1327 35.0429 63.0907C33.2546 62.5333 29.8454 57.02 30.0265 53.4249C30.203 49.9413 33.2779 43.7917 33.4172 43.5316C33.4317 43.5032 33.4527 43.4787 33.4786 43.4601C33.5044 43.4415 33.5343 43.4294 33.5658 43.4247C33.5969 43.4195 33.6287 43.4218 33.6586 43.4315C33.6885 43.4412 33.7157 43.458 33.7377 43.4805C33.7795 43.5223 38.0852 47.9255 39.2464 52.3938C40.1753 56.0074 39.4229 60.3642 36.924 65.7103C36.9054 65.7496 36.8745 65.7818 36.8359 65.8019C36.7973 65.822 36.7532 65.829 36.7103 65.8218Z" fill="#1F1F1F"/>
<path id="Vector_48" d="M40.2635 63.7085C40.2635 63.7085 38.5682 91.8604 38.9723 96.5934C39.3764 101.326 55.6934 102.279 55.6934 102.279V62.1943L40.2635 63.7085Z" fill="#1F1F1F"/>
<path id="Vector_49" d="M49.7757 91.5215C49.1457 92.2784 48.564 93.0742 48.0339 93.9042C47.8017 94.4291 38.9766 114.518 38.9766 114.518C38.9766 114.518 45.9438 119.279 58.6008 117.133C71.2577 114.987 79.3303 105.813 85.0759 102.678C90.8215 99.543 94.4816 100.356 94.4816 100.356C94.4816 100.356 85.2524 93.7974 80.956 91.0663L49.7757 91.5215Z" fill="#545454"/>
<path id="Vector_50" d="M50.7976 111.052C50.7446 111.052 50.6938 111.031 50.6563 110.994C50.6189 110.956 50.5978 110.906 50.5978 110.853C50.5978 110.8 50.6189 110.749 50.6563 110.711C50.6938 110.674 50.7446 110.653 50.7976 110.653C56.9365 110.076 62.7675 107.696 67.5559 103.811C75.3359 97.341 79.7205 97.0391 79.9063 97.0298C79.9593 97.0298 80.0101 97.0509 80.0475 97.0883C80.085 97.1258 80.106 97.1766 80.106 97.2295C80.106 97.2825 80.085 97.3333 80.0475 97.3708C80.0101 97.4082 79.9593 97.4293 79.9063 97.4293C79.8645 97.4293 75.452 97.7498 67.7928 104.118C62.9371 108.057 57.0233 110.47 50.7976 111.052Z" fill="#1F1F1F"/>
<path id="Vector_51" d="M53.3523 104.239C53.3035 104.237 53.2569 104.218 53.2212 104.185C53.1856 104.151 53.1634 104.106 53.1588 104.058C53.1542 104.009 53.1676 103.96 53.1964 103.921C53.2252 103.882 53.2674 103.854 53.3151 103.844C53.3987 103.844 61.7221 102.102 68.1784 98.4465C68.2013 98.4328 68.2267 98.4237 68.2532 98.42C68.2797 98.4162 68.3067 98.4178 68.3325 98.4247C68.3584 98.4315 68.3826 98.4435 68.4037 98.4599C68.4248 98.4763 68.4425 98.4968 68.4555 98.5201C68.4686 98.5435 68.4768 98.5692 68.4798 98.5958C68.4827 98.6224 68.4803 98.6493 68.4726 98.6749C68.465 98.7005 68.4523 98.7243 68.4352 98.745C68.4182 98.7656 68.3972 98.7826 68.3734 98.7949C61.8429 102.483 53.4591 104.22 53.3755 104.234H53.3337L53.3523 104.239Z" fill="#1F1F1F"/>
<path id="Vector_52" d="M70.0968 34.9992C70.0968 34.9992 68.9496 34.5068 68.6616 34.4325C68.579 34.413 68.4927 34.4165 68.412 34.4426C68.3313 34.4687 68.2593 34.5164 68.2038 34.5806C68.1482 34.6447 68.1113 34.7228 68.0971 34.8064C68.0828 34.8901 68.0917 34.976 68.1228 35.0549C68.3272 35.4033 70.9515 36.4901 71.0258 36.5505C71.1001 36.6109 72.2613 37.8139 72.3031 37.8139C72.3449 37.8139 73.9009 37.8557 73.9009 37.8139C73.9009 37.7721 70.0968 34.9992 70.0968 34.9992Z" fill="#FCD9B5"/>
<path id="Vector_53" d="M74.7415 39.4767C73.9159 39.5123 73.089 39.4936 72.2658 39.4209C71.8803 39.3048 70.5612 37.8324 70.3708 37.6791C70.1803 37.5259 69.112 36.9453 69.0145 36.6944C68.917 36.4436 69.6137 36.1928 70.4683 36.7734C70.9049 37.0897 71.3873 37.3372 71.8989 37.5073L73.5246 37.7395L74.7415 39.4767Z" fill="#FCD9B5"/>
<path id="Vector_54" d="M78.7822 47.1404L74.4068 39.4394C74.4068 39.4394 73.4779 39.0539 73.2828 38.7055C73.0877 38.3572 71.8893 36.5364 71.8893 36.5364C71.8893 36.5364 68.2525 34.7761 68.0388 34.5624C67.8252 34.3488 67.9227 33.4616 68.9306 33.9261C69.9385 34.3906 73.3617 35.4542 73.9423 35.9373C74.5229 36.4203 76.9057 38.9935 76.9057 38.9935L83.2737 45.0317L78.7822 47.1404Z" fill="#FCD9B5"/>
<path id="Vector_55" d="M72.8232 49.6581L80.2177 53.3368L78.5131 48.4597L86.098 47.3775C86.098 47.3775 93.9151 60.6941 94.1474 62.1618C94.3796 63.6296 93.9151 67.8888 93.0651 68.5112C92.2151 69.1336 79.9065 68.0096 73.0555 65.9194C66.2044 63.8293 62.9531 46.7551 72.8232 49.6581Z" fill="#333333"/>
<path id="Vector_56" d="M87.7467 63.4441C87.7133 63.4439 87.6804 63.4352 87.6512 63.419C87.622 63.4028 87.5973 63.3795 87.5795 63.3512C85.5879 60.3565 83.4163 57.4854 81.0768 54.7538C81.0465 54.7133 81.0327 54.6628 81.0382 54.6125C81.0437 54.5622 81.068 54.5158 81.1064 54.4828C81.1447 54.4498 81.1941 54.4325 81.2447 54.4346C81.2952 54.4366 81.3431 54.4577 81.3787 54.4937C83.719 57.2409 85.8905 60.1275 87.8814 63.1376C87.909 63.1826 87.9176 63.2367 87.9054 63.288C87.8932 63.3394 87.8612 63.3838 87.8164 63.4116C87.7955 63.427 87.7718 63.438 87.7467 63.4441Z" fill="#141414"/>
<path id="Vector_57" d="M81.9968 63.9082C81.9439 63.9082 81.8931 63.8872 81.8556 63.8497C81.8182 63.8123 81.7971 63.7615 81.7971 63.7085C81.7283 61.5636 81.5313 59.4247 81.2072 57.3033C81.1097 56.5788 81.0447 56.1004 81.0447 55.9099C81.0447 55.8569 81.0657 55.8061 81.1032 55.7687C81.1406 55.7312 81.1914 55.7102 81.2444 55.7102C81.2974 55.7102 81.3482 55.7312 81.3856 55.7687C81.4231 55.8061 81.4441 55.8569 81.4441 55.9099C81.4441 56.0539 81.5138 56.5741 81.602 57.229C81.9292 59.3688 82.1277 61.5263 82.1966 63.6899C82.1991 63.7177 82.1959 63.7456 82.187 63.7721C82.1782 63.7985 82.1639 63.8227 82.1451 63.8433C82.1263 63.8639 82.1033 63.8803 82.0778 63.8914C82.0523 63.9026 82.0247 63.9083 81.9968 63.9082Z" fill="#141414"/>
<path id="Vector_58" d="M78.7821 51.5158C78.7821 51.5158 77.5048 48.4596 77.3887 48.1112C77.2726 47.7629 79.9805 45.0921 81.6479 44.5487C83.3154 44.0052 86.7572 46.4855 87.0266 46.7921C87.4787 47.6307 87.8789 48.4962 88.2249 49.3839L87.6072 49.9645L87.2216 49.3467C87.2216 49.3467 84.5509 48.729 83.1203 48.8033C81.6897 48.8776 79.4835 51.2046 79.4835 51.2046L79.7529 51.9013L78.7821 51.5158Z" fill="#333333"/>
<path id="Vector_59" d="M80.1899 50.7263C80.1494 50.7266 80.1097 50.7145 80.0762 50.6917C80.0427 50.6689 80.017 50.6364 80.0023 50.5986C79.9877 50.5608 79.9849 50.5194 79.9944 50.48C80.0038 50.4406 80.0251 50.405 80.0552 50.3779C80.9191 49.5976 82.1546 48.6594 83.1068 48.6083C84.2788 48.6225 85.4463 48.7579 86.5904 49.0124C86.6179 49.0156 86.6443 49.0244 86.6682 49.0384C86.692 49.0524 86.7127 49.0711 86.7289 49.0935C86.7451 49.1159 86.7565 49.1414 86.7624 49.1684C86.7682 49.1954 86.7684 49.2233 86.7629 49.2504C86.7575 49.2774 86.7464 49.3031 86.7305 49.3257C86.7146 49.3483 86.6942 49.3673 86.6706 49.3816C86.6469 49.3959 86.6206 49.4052 86.5932 49.4088C86.5658 49.4124 86.538 49.4102 86.5114 49.4025C85.4011 49.154 84.2678 49.0216 83.1301 49.0077C82.4751 49.0449 81.4765 49.6348 80.3432 50.6752C80.3226 50.6939 80.2983 50.7081 80.2719 50.7169C80.2455 50.7257 80.2176 50.7289 80.1899 50.7263Z" fill="#141414"/>
<path id="Vector_60" d="M49.1949 87.8612L48.4982 91.9254C48.4982 91.9254 59.2973 96.1056 68.0666 95.8734C76.8359 95.6412 82.0009 91.289 82.0009 91.289L81.4203 87.4014C71.2483 91.7396 60.4678 91.5909 49.1949 87.8612Z" fill="#333333"/>
<path id="Vector_61" d="M83.3901 83.9132C83.5062 84.4938 81.4161 88.0935 81.4161 88.0935C78.589 89.3565 75.6581 90.3728 72.6561 91.1311C71.8804 91.3262 71.0815 91.5027 70.2687 91.6513C68.3953 92.0213 66.488 92.191 64.5788 92.1576C56.915 91.9254 48.0899 88.0935 48.0899 88.0935C48.0899 88.0935 49.4833 78.3394 49.0189 73.8108C48.5544 69.2822 47.8577 53.5457 47.8577 53.5457L55.986 48.2042C60.5146 45.4174 62.7209 46.8108 66.028 47.5075C68.3472 48.0406 70.6196 48.7598 72.8233 49.658C72.8233 49.658 74.9134 61.7344 75.8424 66.7275C76.7713 71.7207 80.2549 78.3394 80.2549 78.3394C80.2549 78.3394 79.9065 80.3135 79.9065 80.6618C79.9065 81.0102 83.274 83.3326 83.3901 83.9132Z" fill="#333333"/>
<path id="Vector_62" d="M65.1777 92.3666H64.5692C59.1488 92.204 53.157 90.2486 50.0683 89.1152C50.0246 89.0929 49.9907 89.0553 49.973 89.0096C49.9553 88.9639 49.955 88.9132 49.9723 88.8673C49.9895 88.8214 50.023 88.7834 50.0664 88.7606C50.1098 88.7378 50.1601 88.7318 50.2076 88.7437C53.2732 89.8863 59.2185 91.8231 64.5785 91.995C66.4737 92.0284 68.367 91.8603 70.2266 91.4934C70.9976 91.354 71.7965 91.1775 72.6 90.9778C75.2338 90.308 77.8141 89.4432 80.3196 88.3907C80.3442 88.3776 80.3712 88.3697 80.3989 88.3677C80.4267 88.3656 80.4545 88.3694 80.4808 88.3787C80.507 88.3881 80.5309 88.4028 80.5511 88.4219C80.5713 88.4411 80.5873 88.4642 80.598 88.4899C80.6087 88.5155 80.6139 88.5432 80.6134 88.571C80.6128 88.5988 80.6064 88.6262 80.5946 88.6514C80.5829 88.6766 80.566 88.6991 80.545 88.7173C80.524 88.7356 80.4995 88.7493 80.4729 88.7576C77.9518 89.8109 75.356 90.6756 72.7069 91.3447C71.894 91.5491 71.0858 91.7256 70.3055 91.8696C68.6151 92.1919 66.8986 92.3582 65.1777 92.3666Z" fill="#141414"/>
<path id="Vector_63" d="M67.5005 47.2938C67.4224 47.4262 67.377 47.5754 67.3681 47.7289C67.3592 47.8824 67.3871 48.0358 67.4494 48.1763C68.592 50.7449 74.3098 63.6991 77.5054 72.3802C77.5054 72.3802 77.9327 67.5821 77.5843 65.0275C77.236 62.4729 75.1412 53.7454 73.2554 49.2353C73.2266 49.1655 73.194 49.0973 73.1579 49.0309C72.9194 48.5986 72.5313 48.2682 72.0663 48.102L68.671 46.8897C68.4594 46.8102 68.2267 46.8071 68.013 46.8809C67.7993 46.9547 67.6181 47.1007 67.5005 47.2938Z" fill="#545454"/>
<path id="Vector_64" d="M59.9898 65.5339C59.9421 65.5333 59.8962 65.5156 59.8604 65.4841C59.8247 65.4526 59.8013 65.4093 59.7947 65.3621C59.3302 62.0736 57.9832 56.6113 57.9693 56.537C57.96 56.5108 57.9562 56.483 57.9582 56.4552C57.9603 56.4275 57.9681 56.4005 57.9812 56.3759C57.9943 56.3514 58.0124 56.3299 58.0343 56.3127C58.0562 56.2956 58.0815 56.2832 58.1084 56.2764C58.1354 56.2695 58.1635 56.2684 58.1909 56.2731C58.2184 56.2777 58.2445 56.2881 58.2677 56.3034C58.2909 56.3188 58.3106 56.3388 58.3256 56.3623C58.3406 56.3857 58.3506 56.412 58.3548 56.4395C58.3548 56.4952 59.6739 61.767 60.1616 65.0927L60.5379 65.0509C60.3614 64.1219 59.6414 60.4061 59.0422 58.1348C59.0338 58.109 59.0308 58.0817 59.0333 58.0547C59.0357 58.0276 59.0437 58.0014 59.0567 57.9775C59.0697 57.9536 59.0874 57.9327 59.1088 57.9159C59.1301 57.8991 59.1547 57.8869 59.181 57.8799C59.2072 57.873 59.2346 57.8714 59.2615 57.8754C59.2884 57.8794 59.3142 57.8888 59.3373 57.9031C59.3604 57.9174 59.3803 57.9363 59.3959 57.9586C59.4114 57.9808 59.4223 58.006 59.4278 58.0326C60.1198 60.6523 60.9605 65.1438 60.9698 65.1902C60.9751 65.2172 60.9748 65.2449 60.9689 65.2718C60.963 65.2986 60.9517 65.3239 60.9355 65.3461C60.9194 65.3684 60.8989 65.387 60.8752 65.401C60.8515 65.4149 60.8252 65.4238 60.798 65.4271L60.013 65.5154L59.9898 65.5339Z" fill="#141414"/>
<path id="Vector_65" d="M59.9943 65.3342C59.9943 65.3342 59.7063 68.7295 59.906 68.9339C60.1058 69.1382 61.8522 69.0221 61.9358 68.7295C62.0194 68.4369 60.7746 65.2459 60.7746 65.2459L59.9943 65.3342Z" fill="#545454"/>
<path id="Vector_66" d="M69.5576 64.4282C69.5106 64.4277 69.4652 64.4107 69.4296 64.3801C69.3939 64.3495 69.3701 64.3073 69.3625 64.261C68.9313 61.8829 68.3684 59.5306 67.6764 57.2149C67.6663 57.1892 67.6616 57.1618 67.6626 57.1342C67.6636 57.1067 67.6704 57.0796 67.6823 57.0548C67.6943 57.03 67.7113 57.0079 67.7323 56.9899C67.7532 56.972 67.7776 56.9586 67.804 56.9505C67.8304 56.9425 67.8581 56.94 67.8855 56.9432C67.9129 56.9464 67.9393 56.9553 67.9631 56.9692C67.9869 56.9831 68.0075 57.0018 68.0238 57.0241C68.04 57.0464 68.0514 57.0718 68.0573 57.0988C68.7357 59.3697 69.2924 61.6752 69.7248 64.0055L70.101 63.9544C69.827 62.7282 68.4242 56.4764 67.5324 53.9403C67.5146 53.8904 67.5173 53.8355 67.5399 53.7876C67.5626 53.7397 67.6033 53.7027 67.6532 53.6848C67.7031 53.667 67.758 53.6697 67.806 53.6923C67.8539 53.715 67.8908 53.7557 67.9087 53.8056C68.9026 56.6343 70.5237 64.0241 70.5376 64.0752C70.5437 64.1021 70.544 64.13 70.5388 64.1571C70.5335 64.1842 70.5227 64.2099 70.5069 64.2326C70.4912 64.2553 70.471 64.2745 70.4475 64.289C70.424 64.3034 70.3977 64.3129 70.3704 64.3167L69.5901 64.4235H69.5622L69.5576 64.4282Z" fill="#141414"/>
<path id="Vector_67" d="M69.5581 64.2287C69.5581 64.2287 69.3537 67.6333 69.5581 67.8284C69.7625 68.0235 71.5043 67.8656 71.5832 67.573C71.6622 67.2803 70.3338 64.1219 70.3338 64.1219L69.5581 64.2287Z" fill="#545454"/>
<path id="Vector_68" d="M72.6561 91.1312C71.8804 91.3263 71.0815 91.5028 70.2687 91.6515L67.1706 86.4679C67.1706 86.4679 69.0285 80.4297 68.9914 80.3136C68.9542 80.1975 66.3578 77.4106 66.3578 77.4106C66.3578 77.4106 66.7062 74.1221 66.669 73.2675C66.6318 72.4128 64.551 62.7099 64.5417 62.3151C64.5045 60.9635 64.1933 58.7944 65.2013 61.0006C66.2092 63.2069 68.4108 72.5708 68.4108 73.1142C68.4108 73.6576 68.2575 76.8672 68.2575 76.8672C68.2575 76.8672 71.0815 79.3057 71.0815 79.5379C71.0815 79.7701 69.2608 86.1985 69.2608 86.1985L72.6561 91.1312Z" fill="#686DF4"/>
<path id="Vector_69" d="M62.0845 86.974C59.7255 86.9696 57.3756 86.6827 55.0848 86.1194C55.0391 86.1023 55.0012 86.0691 54.9783 86.026C54.9554 85.9829 54.949 85.9329 54.9605 85.8855C54.9719 85.838 55.0003 85.7964 55.0403 85.7685C55.0804 85.7405 55.1292 85.7282 55.1777 85.7339C68.9309 89.0781 77.8256 81.4421 77.9138 81.3631C77.9329 81.3431 77.9559 81.3273 77.9813 81.3166C78.0068 81.3059 78.0342 81.3006 78.0618 81.3011C78.0895 81.3015 78.1167 81.3077 78.1418 81.3192C78.1669 81.3307 78.1894 81.3473 78.2078 81.3679C78.2261 81.3885 78.24 81.4128 78.2486 81.439C78.2571 81.4653 78.2601 81.4931 78.2573 81.5206C78.2546 81.5481 78.2462 81.5747 78.2326 81.5987C78.2191 81.6228 78.2007 81.6438 78.1786 81.6604C78.1043 81.7301 71.9918 86.974 62.0845 86.974Z" fill="#141414"/>
<path id="Vector_70" d="M60.5519 82.1761C60.5039 82.1722 60.459 82.1511 60.4254 82.1166C60.3918 82.0822 60.3717 82.0368 60.3689 81.9888C60.3661 81.9408 60.3807 81.8933 60.41 81.8552C60.4394 81.8171 60.4815 81.7909 60.5286 81.7813C60.6169 81.7813 69.2933 80.6712 74.0821 78.0098C74.1281 77.9858 74.1817 77.9807 74.2314 77.9956C74.2811 78.0104 74.3231 78.0441 74.3485 78.0894C74.3739 78.1347 74.3806 78.188 74.3673 78.2382C74.3539 78.2884 74.3216 78.3314 74.2771 78.3581C69.4234 81.0567 60.668 82.1622 60.5797 82.1761H60.5565H60.5519Z" fill="#141414"/>
<path id="Vector_71" d="M49.5623 54.0335C49.5623 54.0335 46.2692 49.3469 46.232 49.0775C46.1949 48.8081 48.4754 44.6279 49.0978 44.1634C49.7202 43.6989 56.7617 42.3426 60.1663 42.1522C63.5709 41.9618 67.4028 43.1973 67.7512 43.3505C68.0996 43.5038 70.0364 44.8229 70.1897 45.7519C70.343 46.6808 70.5009 54.2657 70.5009 54.2657L49.5623 54.0335Z" fill="#333333"/>
<path id="Vector_72" d="M57.584 53.0533C57.5534 53.0531 57.5232 53.0459 57.4959 53.0322C57.4685 53.0185 57.4446 52.9987 57.4261 52.9743C57.231 52.7188 52.6141 46.7132 52.3401 46.3276C52.318 46.2895 52.3065 46.2463 52.3065 46.2022C52.3065 46.1582 52.318 46.1149 52.3401 46.0768C52.6327 45.4312 58.355 44.1121 59.702 43.9635C61.258 43.7916 64.5744 45.0875 65.9214 45.6541L65.9864 45.682C66.1443 45.747 66.3115 45.8121 66.0514 52.1475C66.0509 52.174 66.0449 52.2 66.034 52.2241C66.0231 52.2482 66.0073 52.2698 65.9878 52.2876C65.9682 52.3054 65.9453 52.319 65.9203 52.3277C65.8953 52.3364 65.8688 52.3399 65.8424 52.338C65.8162 52.3368 65.7904 52.3304 65.7667 52.3193C65.7429 52.3081 65.7215 52.2924 65.7038 52.273C65.6862 52.2535 65.6725 52.2308 65.6636 52.2061C65.6547 52.1814 65.6507 52.1552 65.652 52.1289C65.7402 50.0109 65.8378 46.5877 65.7495 46.0164C63.0045 44.8692 60.7564 44.2468 59.7392 44.3629C57.9742 44.5533 53.4409 45.7563 52.772 46.2208C53.4362 47.1172 57.728 52.691 57.7698 52.7513C57.7886 52.7827 57.7984 52.8186 57.7982 52.8552C57.798 52.8918 57.7878 52.9276 57.7686 52.9587C57.7494 52.9899 57.7221 53.0152 57.6895 53.0318C57.657 53.0485 57.6205 53.0559 57.584 53.0533Z" fill="#141414"/>
<path id="Vector_73" d="M55.2336 49.658C55.2336 49.658 59.4139 47.2799 60.7516 47.1034C62.0893 46.9269 65.8609 48.1949 65.8609 48.1949L65.6101 62.7237C65.6073 62.7923 65.5834 62.8584 65.5418 62.913C65.5001 62.9676 65.4427 63.0081 65.3772 63.0289C65.3117 63.0497 65.2415 63.0498 65.1759 63.0293C65.1104 63.0088 65.0528 62.9686 65.0109 62.9141L55.2336 49.658Z" fill="#545454"/>
<path id="Vector_74" d="M52.0194 49.2446C52.246 49.2653 52.4637 49.3425 52.6528 49.4691C52.8419 49.5956 52.9962 49.7676 53.1016 49.9692C54.2489 52.1523 57.5745 59.6257 55.8327 69.9045C53.7426 82.2132 47.6254 86.779 47.6254 86.779V78.5717C47.6254 78.5717 50.9557 71.99 50.9557 65.4874C50.9557 60.0902 48.3965 55.2689 47.5279 53.764C47.3453 53.4498 47.2857 53.0791 47.3607 52.7236C47.4342 52.3683 47.6359 52.0525 47.9273 51.8364L51.0765 49.514C51.3447 49.3178 51.6741 49.2239 52.0054 49.2493L52.0194 49.2446Z" fill="#545454"/>
<path id="Vector_75" d="M64.7552 69.8862C64.7285 69.8862 64.7022 69.8809 64.6776 69.8706C64.6531 69.8602 64.6309 69.8451 64.6123 69.8261C64.5937 69.807 64.579 69.7845 64.5693 69.7597C64.5595 69.7349 64.5548 69.7085 64.5554 69.6818C64.5554 69.64 64.6112 65.2554 64.4393 63.142C64.4358 63.0946 64.4494 63.0476 64.4774 63.0093C64.5055 62.971 64.5464 62.9439 64.5926 62.933L65.8699 62.645C65.9154 62.6347 65.9631 62.6407 66.0047 62.6619C66.0463 62.6831 66.0791 62.7182 66.0975 62.7611C66.9547 64.8644 67.62 67.0408 68.0855 69.2638C68.0946 69.3087 68.088 69.3553 68.0669 69.3958C68.0457 69.4364 68.0113 69.4685 67.9693 69.4868C67.9322 69.4868 67.0079 69.8816 64.7598 69.9094L64.7552 69.8862ZM64.8527 63.2814C64.9874 65.1903 64.9688 68.6135 64.9595 69.4821C65.8712 69.487 66.7798 69.3746 67.6628 69.1477C67.2156 67.0724 66.5941 65.0385 65.8049 63.0677L64.8527 63.2814Z" fill="#141414"/>
<path id="Vector_76" d="M64.4629 65.3945C65.2927 65.2537 66.1086 65.0408 66.9014 64.7581C67.5615 66.307 68.0491 67.9238 68.3552 69.5794C67.0233 69.8262 65.6733 69.9629 64.3189 69.9881C64.3189 69.9881 64.435 66.9319 64.4629 65.3945Z" fill="#545454"/>
<path id="Vector_77" d="M47.8575 53.5502C47.8575 53.5502 32.3579 70.0391 28.7582 75.8451C28.7582 75.8451 32.4183 83.625 35.089 86.9368L42.2327 82.5846L40.4352 76.1981L49.7247 72.25C49.7247 72.25 53.0457 61.4649 47.8575 53.5502Z" fill="#333333"/>
<path id="Vector_78" d="M35.8882 76.6627C34.3142 76.6683 32.7483 76.4366 31.2434 75.9753C31.1967 75.9568 31.1587 75.9215 31.1368 75.8763C31.115 75.831 31.111 75.7793 31.1257 75.7312C31.1403 75.6832 31.1725 75.6424 31.2159 75.6171C31.2592 75.5917 31.3105 75.5836 31.3596 75.5944C33.9222 76.3667 36.6388 76.4769 39.2557 75.9149C39.3303 75.896 39.4065 75.8836 39.4833 75.8777C39.5362 75.8777 39.587 75.8988 39.6245 75.9362C39.6619 75.9737 39.683 76.0245 39.683 76.0774C39.683 76.1304 39.6619 76.1812 39.6245 76.2187C39.587 76.2561 39.5362 76.2772 39.4833 76.2772L39.3253 76.3097C38.1944 76.5425 37.0429 76.6608 35.8882 76.6627Z" fill="#141414"/>
<path id="Vector_79" d="M33.403 86.9929C33.403 86.9929 35.168 84.3779 37.4114 83.3375C39.1717 82.519 41.1077 82.1504 43.0455 82.2645L44.4994 86.3566C44.4994 86.3566 42.5253 88.7951 40.8997 89.8401C39.274 90.8852 35.2098 90.7691 35.2098 90.7691L33.403 86.9929Z" fill="#333333"/>
<path id="Vector_80" d="M34.9405 85.3576C34.9016 85.3569 34.8637 85.3448 34.8315 85.3228C34.7993 85.3008 34.7743 85.2699 34.7595 85.2338C34.7447 85.1978 34.7407 85.1582 34.7481 85.12C34.7556 85.0817 34.774 85.0465 34.8012 85.0186C35.5292 84.2572 36.3842 83.6286 37.3279 83.1607C38.7317 82.5163 40.2445 82.1428 41.7869 82.0598C41.8399 82.0598 41.8907 82.0809 41.9281 82.1183C41.9656 82.1558 41.9866 82.2066 41.9866 82.2596C41.9866 82.3125 41.9656 82.3633 41.9281 82.4008C41.8907 82.4383 41.8399 82.4593 41.7869 82.4593C40.296 82.5394 38.8336 82.9003 37.4766 83.5229C36.5823 83.975 35.773 84.5785 35.0845 85.3065C35.0452 85.342 34.9934 85.3603 34.9405 85.3576Z" fill="#141414"/>
<path id="Vector_81" d="M37.2027 88.7624C37.2027 88.7624 39.6969 86.0359 42.716 86.0359C44.5651 89.826 46.61 93.5174 48.8425 97.0951L47.045 100.346C43.5637 96.66 40.2785 92.7933 37.2027 88.7624Z" fill="#FCD9B5"/>
<path id="Vector_82" d="M49.3951 95.5252C49.3951 95.5252 47.6812 98.837 45.0104 103.714L46.8126 105.224C46.8126 105.224 50.4123 101.275 52.2145 96.4588L49.3951 95.5252Z" fill="#333333"/>
<path id="Vector_83" d="M54.2536 32.3936C53.5349 31.769 52.6801 31.321 51.7575 31.0856C50.8349 30.8501 49.8701 30.8335 48.94 31.0373C45.5725 31.655 44.6435 34.8181 46.9288 36.7596C48.8517 38.3946 47.8577 40.2154 46.0741 40.0342C45.9207 40.0178 45.7657 40.0399 45.6229 40.0984C45.4802 40.157 45.3543 40.2501 45.2566 40.3695C45.1588 40.4889 45.0924 40.6307 45.0632 40.7822C45.034 40.9337 45.043 41.0901 45.0894 41.2372C45.4053 42.2962 46.3807 43.4946 49.214 43.3831C54.2071 43.188 54.5183 37.7722 51.1091 36.337C47.6998 34.9017 49.6367 32.3889 53.4686 33.8985L54.2536 32.3936Z" fill="#141414"/>
<path id="Vector_84" d="M55.7163 32.2031C55.7163 32.2031 53.6262 31.5435 53.0828 32.5143C52.5393 33.485 52.5393 34.7205 54.9778 34.6416L55.7163 32.2031Z" fill="#545454"/>
<path id="Vector_85" d="M62.8001 43.1181L62.605 46.1326L62.2938 50.8981C59.3909 51.9014 58.4247 50.0063 58.4247 50.0063L59.2376 42.9462L59.3398 42.073L62.8001 43.1181Z" fill="#FCD9B5"/>
<path id="Vector_86" d="M62.7998 43.1181L62.6047 46.1326C60.6214 45.5798 59.6413 43.8473 59.2512 42.9462L59.3533 42.073L62.7998 43.1181Z" fill="#141414"/>
<path id="Vector_87" d="M65.526 33.81C65.973 34.9518 65.9944 36.2162 65.5864 37.3725C64.9268 39.3094 63.5148 33.601 63.5148 33.601L65.526 33.81Z" fill="#141414"/>
<path id="Vector_88" d="M57.2264 36.2252C57.5706 38.1484 58.0755 40.0392 58.736 41.8779C59.6277 44.0842 62.684 44.7716 63.9985 44.3443C65.3129 43.917 66.9015 38.0831 64.8485 33.7496C62.7955 29.416 56.2557 30.9256 57.2264 36.2252Z" fill="#FCD9B5"/>
<path id="Vector_89" d="M56.9937 39.2073L59.2 39.0122C59.0348 38.0538 58.9957 37.0778 59.0838 36.1093C59.2789 35.0642 60.9418 34.8319 61.174 33.5546C61.4062 32.2773 61.253 30.8467 58.6565 31.2694C56.0601 31.6921 55.094 35.2593 56.9937 39.2073Z" fill="#141414"/>
<path id="Vector_90" d="M65.8932 34.2931C63.4396 34.4625 61.0223 34.977 58.7123 35.8212C57.3794 36.2933 56.0909 36.8823 54.8618 37.5816C54.8618 37.5816 54.2812 34.4463 54.6714 32.6674C55.0616 30.8884 59.2372 28.7937 61.7129 28.9098H61.8708C64.2628 29.2488 65.8932 34.2931 65.8932 34.2931Z" fill="#333333"/>
<path id="Vector_91" d="M65.8931 34.2931C63.4396 34.4626 61.0222 34.977 58.7122 35.8212C58.6286 34.4278 58.5265 31.8267 58.7726 30.921C58.9724 30.1871 60.1661 29.2442 61.8707 28.9237C64.2628 29.2489 65.8931 34.2931 65.8931 34.2931Z" fill="#545454"/>
<path id="Vector_92" d="M58.2666 35.9837C59.3478 34.8157 60.5137 33.729 61.7548 32.7324C63.1018 31.7802 66.5529 31.1439 70.1944 31.6502L65.8979 34.2837C65.8979 34.2837 61.4668 34.4974 58.2666 35.9837Z" fill="#141414"/>
<path id="Vector_93" d="M58.7728 39.3234C58.6357 38.6284 58.2698 37.9992 57.7336 37.5363C57.1974 37.0733 56.5217 36.8031 55.8141 36.7688C55.2873 36.7535 54.7656 36.8752 54.2999 37.1218C52.2469 38.204 54.1466 42.7327 59.214 41.381L58.7728 39.3234Z" fill="#FCD9B5"/>
<path id="Vector_94" d="M58.4382 40.717C58.4101 40.7171 58.3827 40.7087 58.3595 40.6929C58.3363 40.6772 58.3184 40.6548 58.3081 40.6287C57.1098 37.7397 54.9128 38.3064 54.8153 38.3435C54.7795 38.3534 54.7414 38.3486 54.7091 38.3303C54.6769 38.312 54.6533 38.2817 54.6434 38.246C54.6335 38.2102 54.6383 38.1721 54.6566 38.1398C54.6749 38.1076 54.7052 38.084 54.7409 38.0741C54.7688 38.0741 57.2723 37.396 58.5682 40.5219C58.5821 40.5558 58.5822 40.5938 58.5682 40.6277C58.5543 40.6616 58.5276 40.6887 58.4939 40.703L58.4382 40.717Z" fill="#141414"/>
<path id="Vector_95" d="M56.3345 40.5543H56.2973C56.2796 40.5494 56.263 40.5411 56.2485 40.5299C56.234 40.5186 56.2219 40.5046 56.2128 40.4886C56.2037 40.4727 56.1979 40.455 56.1957 40.4368C56.1934 40.4186 56.1948 40.4001 56.1998 40.3824C56.3776 39.7671 56.6271 39.1747 56.9429 38.6174C56.9626 38.586 56.994 38.5637 57.0302 38.5554C57.0663 38.5471 57.1043 38.5536 57.1357 38.5733C57.1671 38.593 57.1894 38.6244 57.1977 38.6605C57.2059 38.6967 57.1995 38.7346 57.1798 38.766C56.8773 39.3019 56.6373 39.8707 56.4645 40.4614C56.455 40.4883 56.4374 40.5117 56.4141 40.5283C56.3909 40.5449 56.363 40.554 56.3345 40.5543Z" fill="#141414"/>
<path id="Vector_96" d="M60.2872 37.3494C60.2872 37.3494 60.7517 36.0117 61.7735 36.3787C61.7735 36.3787 61.8106 35.7563 62.0615 35.7191C62.3123 35.682 62.3866 36.7967 62.3866 36.7967C61.6568 36.8384 60.9429 37.0263 60.2872 37.3494Z" fill="#141414"/>
<path id="Vector_97" d="M65.5227 37.1319C65.5227 37.1319 65.374 35.8677 64.7512 36.3232C64.7512 36.3232 64.7884 35.7097 64.649 35.705C64.3283 35.705 64.3608 36.7926 64.3608 36.7926C64.7762 36.7637 65.1882 36.884 65.5227 37.1319Z" fill="#141414"/>
<path id="Vector_98" d="M63.6501 40.8749C63.6182 40.8759 63.5869 40.8659 63.5614 40.8466C63.536 40.8273 63.518 40.7998 63.5103 40.7688C63.5027 40.7378 63.506 40.7051 63.5196 40.6762C63.5332 40.6473 63.5563 40.624 63.5851 40.6101C63.7941 40.5033 64.3468 40.1456 64.3607 39.8019C64.3747 39.4582 63.7058 38.2877 63.5154 38.009C63.4945 37.9782 63.4866 37.9404 63.4936 37.9038C63.5005 37.8672 63.5218 37.8349 63.5525 37.814C63.5833 37.793 63.6212 37.7852 63.6578 37.7921C63.6944 37.7991 63.7267 37.8203 63.7476 37.8511C63.7476 37.8511 64.6766 39.2446 64.6441 39.8112C64.6116 40.3779 63.808 40.8098 63.7151 40.8609C63.6949 40.8708 63.6726 40.8755 63.6501 40.8749Z" fill="#141414"/>
<path id="Vector_99" d="M64.1932 42.0126C63.9064 42.2913 63.5848 42.5317 63.2364 42.7279C62.6604 43.0345 61.9916 43.1367 61.7315 42.2077C61.6409 41.8608 61.6018 41.5024 61.6154 41.1441C61.6154 41.1441 62.3121 41.8176 64.1932 42.0126Z" fill="#141414"/>
<path id="Vector_100" d="M63.2368 42.728C62.6608 43.0346 61.992 43.1368 61.7319 42.2078C62.0057 42.1749 62.2835 42.2046 62.5442 42.2947C62.8049 42.3848 63.0417 42.533 63.2368 42.728Z" fill="white"/>
<path id="Vector_101" d="M61.7461 39.3057C62.0413 39.3057 62.2806 39.0103 62.2806 38.6457C62.2806 38.2812 62.0413 37.9858 61.7461 37.9858C61.4509 37.9858 61.2116 38.2812 61.2116 38.6457C61.2116 39.0103 61.4509 39.3057 61.7461 39.3057Z" fill="#141414"/>
<path id="Vector_102" d="M61.8608 38.5509C61.9374 38.5509 61.9995 38.4888 61.9995 38.4123C61.9995 38.3357 61.9374 38.2737 61.8608 38.2737C61.7843 38.2737 61.7222 38.3357 61.7222 38.4123C61.7222 38.4888 61.7843 38.5509 61.8608 38.5509Z" fill="white"/>
<path id="Vector_103" d="M64.8808 39.3057C65.176 39.3057 65.4153 39.0103 65.4153 38.6457C65.4153 38.2812 65.176 37.9858 64.8808 37.9858C64.5856 37.9858 64.3463 38.2812 64.3463 38.6457C64.3463 39.0103 64.5856 39.3057 64.8808 39.3057Z" fill="#141414"/>
<path id="Vector_104" d="M64.9963 38.5509C65.0729 38.5509 65.135 38.4888 65.135 38.4123C65.135 38.3357 65.0729 38.2737 64.9963 38.2737C64.9198 38.2737 64.8577 38.3357 64.8577 38.4123C64.8577 38.4888 64.9198 38.5509 64.9963 38.5509Z" fill="white"/>
</g>
</svg>
