<svg width="80" height="80" viewBox="0 0 80 80" fill="none" xmlns="http://www.w3.org/2000/svg">
<g id="Logo">
<path id="Vector" d="M64.3906 0H15.6094C6.98438 0 0 6.98438 0 15.6094V64.3906C0 73.0156 6.98438 80 15.6094 80H64.3906C73.0156 80 80 73.0156 80 64.3906V15.6094C80 6.98438 73.0156 0 64.3906 0ZM48.2344 60.7031H21.5938C20.3281 60.7031 19.3125 59.6875 19.3125 58.4219C19.3125 57.9219 19.4688 57.4531 19.75 57.0781C19.7812 57.0469 19.7969 57.0156 19.8281 56.9688C20.0938 56.625 20.3438 56.25 20.5625 55.875C21.375 54.4531 21.8438 52.8125 21.8438 51.0469C21.8438 49.2969 21.375 47.6406 20.5625 46.2188C20.3438 45.8437 20.0938 45.4688 19.8281 45.125C19.7969 45.0937 19.7812 45.0625 19.75 45.0312C19.4688 44.6562 19.3125 44.1875 19.3125 43.6875C19.3125 42.4375 20.3281 41.4062 21.5938 41.4062H48.2344C53.5625 41.4062 57.8906 45.7187 57.8906 51.0625C57.875 56.3906 53.5625 60.7031 48.2344 60.7031ZM59.4375 33.7656C59.6562 34.1406 59.9062 34.5156 60.1719 34.8594C60.2031 34.8906 60.2344 34.9219 60.25 34.9688C60.5312 35.3438 60.6875 35.8125 60.6875 36.3125C60.6875 37.5781 59.6719 38.5938 58.4062 38.5938H31.7812C26.4531 38.5938 22.125 34.2812 22.125 28.9375C22.125 23.6094 26.4531 19.2812 31.7812 19.2812H58.4219C59.6719 19.2812 60.7031 20.2969 60.7031 21.5625C60.7031 22.0625 60.5469 22.5312 60.2656 22.9062C60.2344 22.9375 60.2188 22.9688 60.1875 23C59.9219 23.3438 59.6719 23.7188 59.4531 24.0938C58.6406 25.5156 58.1719 27.1562 58.1719 28.9062C58.1719 30.6562 58.6094 32.3438 59.4375 33.7656Z" fill="white"/>
</g>
</svg>
