<?xml version="1.0" encoding="UTF-8"?>
<svg id="Layer_1" data-name="Layer 1" xmlns="http://www.w3.org/2000/svg" viewBox="0 0 400 100">
  
  <g>
    <path fill="black" d="M45.82,84.08v-25.23c0-6-1.56-10.55-4.69-13.64-3.13-3.1-7.33-4.65-12.62-4.65s-9.49,1.55-12.62,4.65c-3.13,3.1-4.69,7.65-4.69,13.64v25.23H4.65v-25.23c0-3.98,.57-7.5,1.71-10.56,1.14-3.06,2.75-5.61,4.84-7.63,2.09-2.02,4.6-3.55,7.53-4.6,2.93-1.04,6.19-1.56,9.78-1.56s6.85,.52,9.78,1.56c2.93,1.04,5.44,2.58,7.53,4.6,2.09,2.02,3.7,4.56,4.84,7.63,1.14,3.07,1.71,6.59,1.71,10.56v25.23h-6.55Z"/>
    <path fill="black" d="M66.75,62.08c.2,2.54,.81,4.86,1.86,6.94,1.04,2.09,2.4,3.9,4.06,5.43,1.66,1.53,3.62,2.72,5.87,3.57,2.25,.85,4.74,1.27,7.48,1.27,3.85,0,7.19-.75,10.02-2.25,2.84-1.5,5.04-3.65,6.6-6.45h7.14c-1.89,4.5-4.91,8.09-9.05,10.76-4.14,2.67-9.05,4.01-14.72,4.01-3.85,0-7.35-.64-10.51-1.91-3.16-1.27-5.9-3.03-8.22-5.28-2.32-2.25-4.11-4.94-5.38-8.07-1.27-3.13-1.91-6.52-1.91-10.17s.64-7.04,1.91-10.17,3.06-5.82,5.38-8.07c2.31-2.25,5.05-4.01,8.22-5.28,3.16-1.27,6.67-1.91,10.51-1.91s7.27,.64,10.46,1.91c3.19,1.27,5.92,3.03,8.17,5.28s4.01,4.94,5.28,8.07c1.27,3.13,1.91,6.52,1.91,10.17v2.15h-45.09Zm19.27-21.52c-5.15,0-9.42,1.42-12.81,4.25-3.39,2.84-5.48,6.57-6.26,11.2v.2h38.04v-.2c-.39-2.28-1.12-4.37-2.2-6.26-1.08-1.89-2.43-3.52-4.06-4.89-1.63-1.37-3.52-2.43-5.67-3.18-2.15-.75-4.5-1.12-7.04-1.12Z"/>
    <path fill="black" d="M213.74,52.49c-1.3-3.65-3.55-6.55-6.75-8.7-3.2-2.15-7.01-3.23-11.44-3.23-2.87,0-5.49,.49-7.87,1.47-2.38,.98-4.42,2.33-6.11,4.06-1.7,1.73-3.02,3.77-3.96,6.11-.95,2.35-1.42,4.92-1.42,7.73s.47,5.38,1.42,7.73c.94,2.35,2.26,4.39,3.96,6.11,1.69,1.73,3.73,3.08,6.11,4.06,2.38,.98,5,1.47,7.87,1.47,4.43,0,8.25-1.08,11.44-3.23,3.19-2.15,5.44-5.05,6.75-8.7h6.65c-.72,2.67-1.83,5.12-3.33,7.34-1.5,2.22-3.33,4.11-5.48,5.67-2.15,1.56-4.58,2.79-7.29,3.67-2.71,.88-5.62,1.32-8.75,1.32-3.85,0-7.35-.64-10.51-1.91-3.16-1.27-5.9-3.03-8.22-5.28-2.32-2.25-4.11-4.94-5.38-8.07-1.27-3.13-1.91-6.52-1.91-10.17s.64-7.04,1.91-10.17,3.06-5.82,5.38-8.07c2.31-2.25,5.05-4.01,8.22-5.28,3.16-1.27,6.67-1.91,10.51-1.91,3.13,0,6.05,.44,8.75,1.32,2.7,.88,5.13,2.1,7.29,3.67,2.15,1.56,3.98,3.46,5.48,5.67,1.5,2.22,2.61,4.66,3.33,7.33h-6.65Z"/>
    <path fill="black" d="M278.29,59.93c0,3.65-.64,7.04-1.91,10.17-1.27,3.13-3.07,5.82-5.38,8.07-2.32,2.25-5.07,4.01-8.26,5.28-3.2,1.27-6.68,1.91-10.46,1.91s-7.35-.64-10.51-1.91c-3.16-1.27-5.9-3.03-8.22-5.28-2.32-2.25-4.11-4.94-5.38-8.07-1.27-3.13-1.91-6.52-1.91-10.17s.64-7.04,1.91-10.17,3.06-5.82,5.38-8.07c2.31-2.25,5.05-4.01,8.22-5.28,3.16-1.27,6.67-1.91,10.51-1.91s7.27,.64,10.46,1.91c3.19,1.27,5.95,3.03,8.26,5.28,2.31,2.25,4.11,4.94,5.38,8.07s1.91,6.52,1.91,10.17Zm-26.01,19.36c2.87,0,5.49-.49,7.87-1.47,2.38-.98,4.42-2.33,6.11-4.06,1.69-1.73,3.01-3.77,3.96-6.11,.94-2.35,1.42-4.92,1.42-7.73s-.47-5.38-1.42-7.73c-.95-2.35-2.27-4.38-3.96-6.11-1.7-1.73-3.73-3.08-6.11-4.06-2.38-.98-5-1.47-7.87-1.47s-5.49,.49-7.87,1.47c-2.38,.98-4.42,2.33-6.11,4.06-1.7,1.73-3.02,3.77-3.96,6.11-.95,2.35-1.42,4.92-1.42,7.73s.47,5.38,1.42,7.73c.94,2.35,2.26,4.39,3.96,6.11,1.69,1.73,3.73,3.08,6.11,4.06,2.38,.98,5,1.47,7.87,1.47Z"/>
    <path fill="black" d="M309.97,85.35c-3.85,0-7.35-.64-10.51-1.91-3.16-1.27-5.9-3.03-8.22-5.28-2.32-2.25-4.11-4.94-5.38-8.07-1.27-3.13-1.91-6.52-1.91-10.17,0-3.91,.67-7.45,2.01-10.61,1.34-3.16,3.14-5.83,5.43-8.02,2.28-2.18,4.94-3.86,7.97-5.04,3.03-1.17,6.24-1.76,9.63-1.76,4.69,0,8.79,1.01,12.27,3.03,3.49,2.02,6.11,4.76,7.87,8.22h.2V14.65h6.55V59.63c0,3.85-.64,7.35-1.91,10.51-1.27,3.16-3.05,5.87-5.33,8.12-2.28,2.25-5.02,3.99-8.22,5.23-3.2,1.24-6.68,1.86-10.46,1.86Zm0-6.06c2.87,0,5.49-.49,7.87-1.47,2.38-.98,4.42-2.33,6.11-4.06,1.69-1.73,3.01-3.77,3.96-6.11,.94-2.35,1.42-4.92,1.42-7.73s-.47-5.38-1.42-7.73c-.95-2.35-2.27-4.38-3.96-6.11-1.7-1.73-3.73-3.08-6.11-4.06-2.38-.98-5-1.47-7.87-1.47s-5.49,.49-7.87,1.47c-2.38,.98-4.42,2.33-6.11,4.06-1.7,1.73-3.02,3.77-3.96,6.11-.95,2.35-1.42,4.92-1.42,7.73s.47,5.38,1.42,7.73c.94,2.35,2.26,4.39,3.96,6.11,1.69,1.73,3.73,3.08,6.11,4.06,2.38,.98,5,1.47,7.87,1.47Z"/>
    <path fill="black" d="M350.27,62.08c.2,2.54,.81,4.86,1.86,6.94,1.04,2.09,2.4,3.9,4.06,5.43,1.66,1.53,3.62,2.72,5.87,3.57,2.25,.85,4.74,1.27,7.48,1.27,3.85,0,7.19-.75,10.02-2.25,2.84-1.5,5.04-3.65,6.6-6.45h7.14c-1.89,4.5-4.91,8.09-9.05,10.76-4.14,2.67-9.05,4.01-14.72,4.01-3.85,0-7.35-.64-10.51-1.91-3.16-1.27-5.9-3.03-8.22-5.28-2.32-2.25-4.11-4.94-5.38-8.07-1.27-3.13-1.91-6.52-1.91-10.17s.64-7.04,1.91-10.17c1.27-3.13,3.06-5.82,5.38-8.07,2.31-2.25,5.05-4.01,8.22-5.28,3.16-1.27,6.67-1.91,10.51-1.91s7.27,.64,10.46,1.91c3.19,1.27,5.92,3.03,8.17,5.28,2.25,2.25,4.01,4.94,5.28,8.07,1.27,3.13,1.91,6.52,1.91,10.17v2.15h-45.09Zm19.27-21.52c-5.15,0-9.42,1.42-12.81,4.25-3.39,2.84-5.48,6.57-6.26,11.2v.2h38.04v-.2c-.39-2.28-1.12-4.37-2.2-6.26-1.08-1.89-2.43-3.52-4.06-4.89-1.63-1.37-3.52-2.43-5.67-3.18-2.15-.75-4.5-1.12-7.04-1.12Z"/>
  </g>
  <g>
    <polygon fill="#1689ca" points="126.81 35.77 116.25 35.77 116.21 35.81 135.89 59.94 146.48 59.94 146.5 59.93 126.81 35.77"/>
    <polygon fill="#1689ca" points="146.48 59.91 146.5 59.93 126.81 84.08 116.25 84.08 116.21 84.05 135.89 59.91 146.48 59.91"/>
    <polygon fill="black" points="166.17 35.81 149.26 56.55 143.95 50.03 155.57 35.77 166.13 35.77 166.17 35.81"/>
    <polygon fill="black" points="166.17 84.05 149.26 63.31 143.95 69.82 155.57 84.08 166.13 84.08 166.17 84.05"/>
  </g>
</svg>