<svg width="40" height="40" viewBox="0 0 40 40" fill="none" xmlns="http://www.w3.org/2000/svg">
<circle cx="20" cy="20" r="20" fill="#007AFF" fill-opacity="0.3"/>
<path d="M23.9371 10.25V8.75C23.9371 8.60082 23.9963 8.45774 24.1018 8.35225C24.2073 8.24676 24.3504 8.1875 24.4996 8.1875C24.6488 8.1875 24.7918 8.24676 24.8973 8.35225C25.0028 8.45774 25.0621 8.60082 25.0621 8.75V10.25C25.0621 10.3992 25.0028 10.5423 24.8973 10.6477C24.7918 10.7532 24.6488 10.8125 24.4996 10.8125C24.3504 10.8125 24.2073 10.7532 24.1018 10.6477C23.9963 10.5423 23.9371 10.3992 23.9371 10.25ZM27.2061 11.6797C27.2692 11.7182 27.3393 11.7439 27.4123 11.7553C27.4853 11.7667 27.5599 11.7636 27.6317 11.7462C27.7035 11.7288 27.7712 11.6974 27.8309 11.6538C27.8906 11.6102 27.9411 11.5553 27.9796 11.4922L28.7296 10.2631C28.7701 10.2001 28.7977 10.1295 28.8106 10.0557C28.8235 9.98179 28.8215 9.90609 28.8047 9.83301C28.7879 9.75992 28.7567 9.69093 28.7129 9.63009C28.6691 9.56925 28.6135 9.51778 28.5495 9.47871C28.4855 9.43965 28.4143 9.41377 28.3402 9.40261C28.2661 9.39145 28.1904 9.39523 28.1178 9.41372C28.0451 9.43221 27.9768 9.46505 27.9171 9.51029C27.8573 9.55554 27.8071 9.61228 27.7696 9.67719L27.0196 10.9062C26.981 10.9693 26.9553 11.0393 26.9438 11.1123C26.9323 11.1853 26.9353 11.2598 26.9526 11.3316C26.97 11.4034 27.0013 11.4711 27.0448 11.5309C27.0883 11.5906 27.1431 11.6412 27.2061 11.6797ZM31.378 13.0784C31.3554 13.0081 31.3192 12.9428 31.2714 12.8864C31.2236 12.8301 31.1652 12.7837 31.0995 12.7499C31.0337 12.7161 30.962 12.6956 30.8883 12.6896C30.8147 12.6835 30.7406 12.6921 30.6702 12.7147L29.2639 13.1694C29.1357 13.21 29.0262 13.2952 28.9554 13.4096C28.8846 13.524 28.8572 13.66 28.8781 13.7929C28.8989 13.9258 28.9667 14.0468 29.0692 14.134C29.1716 14.2212 29.3019 14.2688 29.4364 14.2681C29.4951 14.2679 29.5533 14.2584 29.6089 14.24L31.0152 13.7863C31.1572 13.7405 31.2751 13.6402 31.3432 13.5075C31.4112 13.3747 31.4237 13.2204 31.378 13.0784ZM28.5814 16.8584C29.3939 18.2559 29.7184 19.8839 29.5041 21.4861C29.2897 23.0883 28.5486 24.5737 27.3974 25.7084C27.0114 27.096 26.2243 28.3387 25.1348 29.2806C24.0453 30.2226 22.7018 30.8218 21.273 31.0031C19.8443 31.1845 18.3937 30.9399 17.1034 30.3C15.8131 29.6601 14.7405 28.6534 14.0202 27.4062L10.7389 21.7222C10.5414 21.3801 10.4375 20.9921 10.4375 20.5971C10.4375 20.2021 10.5415 19.814 10.7391 19.472C10.9366 19.1299 11.2207 18.8459 11.5628 18.6484C11.9049 18.451 12.293 18.3471 12.688 18.3472L12.1621 17.435C11.9706 17.1022 11.8675 16.726 11.8625 16.3421C11.8576 15.9582 11.9509 15.5795 12.1337 15.2419C12.3164 14.9042 12.5825 14.619 12.9067 14.4133C13.2308 14.2076 13.6022 14.0882 13.9855 14.0666C13.7452 13.5756 13.6918 13.0139 13.8353 12.4864C13.9789 11.959 14.3096 11.5018 14.7656 11.2003C15.2216 10.8989 15.7718 10.7738 16.3134 10.8484C16.8549 10.9229 17.3508 11.1921 17.7083 11.6056C17.9005 11.2563 18.1821 10.9644 18.5242 10.7596C18.8663 10.5549 19.2567 10.4447 19.6554 10.4404C20.054 10.4362 20.4467 10.5379 20.7931 10.7352C21.1396 10.9325 21.4274 11.2183 21.6271 11.5634L22.9058 13.7741C23.1034 13.4322 23.3874 13.1484 23.7293 12.951C24.0713 12.7537 24.4591 12.6498 24.8539 12.6498C25.2488 12.6498 25.6366 12.7537 25.9786 12.951C26.3205 13.1484 26.6045 13.4322 26.8021 13.7741L28.5814 16.8584ZM18.7039 13.25L19.2749 14.24C19.4566 14.4012 19.6105 14.5913 19.7305 14.8025L21.0083 17.0113C21.1937 16.6878 21.4567 16.4156 21.7735 16.2192C22.0904 16.0228 22.4512 15.9084 22.8233 15.8863L20.6558 12.125C20.5066 11.8665 20.2609 11.6779 19.9726 11.6007C19.6844 11.5234 19.3772 11.5638 19.1188 11.713C18.8603 11.8622 18.6717 12.1079 18.5944 12.3961C18.5172 12.6844 18.5576 12.9915 18.7068 13.25H18.7039ZM15.0308 13.6391L15.6027 14.6291C15.6771 14.6958 15.747 14.7676 15.8118 14.8438C15.9945 14.5086 16.2598 14.2257 16.5825 14.0218C16.9052 13.8178 17.2747 13.6997 17.6558 13.6784L16.9799 12.5141C16.906 12.3861 16.8077 12.2739 16.6904 12.1839C16.5732 12.094 16.4394 12.028 16.2967 11.9897C16.154 11.9515 16.0051 11.9417 15.8586 11.961C15.7121 11.9802 15.5708 12.0282 15.4428 12.102C15.1844 12.2512 14.9958 12.497 14.9185 12.7852C14.8412 13.0735 14.8816 13.3806 15.0308 13.6391ZM26.3296 25.3522C26.542 24.5675 26.5968 23.7484 26.4907 22.9424C26.3847 22.1364 26.1199 21.3593 25.7118 20.6562L23.9305 17.5709C23.7838 17.3209 23.5463 17.1372 23.2674 17.058C22.9886 16.9788 22.6899 17.0104 22.4337 17.146C22.1776 17.2817 21.9836 17.5109 21.8924 17.7861C21.8011 18.0612 21.8196 18.361 21.9439 18.6228L23.0127 20.4697C23.0512 20.5337 23.0766 20.6048 23.0874 20.6787C23.0982 20.7527 23.0941 20.828 23.0754 20.9004C23.0568 20.9728 23.0239 21.0407 22.9786 21.1002C22.9334 21.1597 22.8768 21.2096 22.8121 21.2469C22.7474 21.2843 22.6759 21.3084 22.6017 21.3178C22.5276 21.3273 22.4523 21.3218 22.3803 21.3018C22.3083 21.2818 22.241 21.2477 22.1823 21.2014C22.1237 21.1551 22.0748 21.0976 22.0386 21.0322L18.7574 15.3603C18.6842 15.232 18.5864 15.1193 18.4697 15.0287C18.353 14.9382 18.2195 14.8715 18.077 14.8325C17.9345 14.7935 17.7857 14.7829 17.6391 14.8014C17.4925 14.8199 17.351 14.8671 17.2227 14.9403C16.9635 15.0881 16.7736 15.3329 16.6948 15.6207C16.6161 15.9085 16.6549 16.2158 16.8027 16.475L19.1118 20.4688C19.1503 20.5328 19.1757 20.6038 19.1865 20.6778C19.1973 20.7517 19.1932 20.8271 19.1745 20.8995C19.1558 20.9718 19.1229 21.0397 19.0777 21.0992C19.0325 21.1587 18.9759 21.2086 18.9112 21.246C18.8464 21.2834 18.7749 21.3075 18.7008 21.3169C18.6266 21.3263 18.5514 21.3209 18.4794 21.3009C18.4074 21.2809 18.3401 21.2467 18.2814 21.2005C18.2227 21.1542 18.1739 21.0966 18.1377 21.0312L15.0843 15.7494C14.9322 15.4968 14.6871 15.314 14.4016 15.2403C14.1161 15.1667 13.8132 15.208 13.5579 15.3554C13.3026 15.5029 13.1153 15.7446 13.0365 16.0287C12.9576 16.3127 12.9934 16.6164 13.1361 16.8744L16.5111 22.7206C16.5825 22.8496 16.6004 23.0014 16.561 23.1435C16.5215 23.2855 16.4279 23.4064 16.3003 23.4801C16.1726 23.5538 16.0211 23.5745 15.8784 23.5376C15.7357 23.5008 15.6131 23.4094 15.5371 23.2831L13.6621 20.0356C13.5129 19.7772 13.2671 19.5886 12.9789 19.5113C12.6906 19.434 12.3835 19.4744 12.125 19.6236C11.8666 19.7728 11.678 20.0185 11.6007 20.3068C11.5234 20.595 11.5638 20.9022 11.713 21.1606L14.9943 26.8447C15.6061 27.9045 16.5186 28.7591 17.6162 29.3004C18.7138 29.8417 19.9472 30.0453 21.1606 29.8856C22.3739 29.7258 23.5126 29.2098 24.4327 28.4029C25.3528 27.596 26.0129 26.5343 26.3296 25.3522ZM27.6074 17.4209L25.8261 14.3356C25.6769 14.0772 25.4312 13.8886 25.1429 13.8113C24.8547 13.734 24.5476 13.7744 24.2891 13.9236C24.0306 14.0728 23.842 14.3185 23.7648 14.6068C23.6875 14.895 23.7279 15.2022 23.8771 15.4606L24.4489 16.4516C24.6297 16.6115 24.7835 16.7996 24.9046 17.0084L26.6858 20.0938C27.2902 21.1361 27.6265 22.3122 27.6646 23.5166C28.1838 22.5826 28.4516 21.5298 28.4415 20.4612C28.4315 19.3926 28.1441 18.345 27.6074 17.4209Z" fill="#007AFF"/>
</svg>
