<svg width="66" height="24" viewBox="0 0 66 24" fill="none" xmlns="http://www.w3.org/2000/svg">
<path d="M13.3371 17.4885C13.3371 19.336 12.6974 20.8776 11.418 22.1132C10.1385 23.3487 8.55714 23.9653 6.67377 23.963C4.765 23.9607 3.17551 23.3499 1.90531 22.1305C0.635102 20.9111 0 19.3626 0 17.485C0 15.6374 0.639722 14.0959 1.91916 12.8603C3.19861 11.6247 4.78059 11.0081 6.66511 11.0104C8.57734 11.0104 10.1657 11.6201 11.4301 12.8395C12.6945 14.0589 13.3302 15.6086 13.3371 17.4885ZM4.60565 17.5092C4.60565 16.8164 4.24017 16.4544 3.50923 16.4544C2.77828 16.4544 2.41281 16.8008 2.41281 17.5092C2.41281 18.2177 2.77828 18.5225 3.50923 18.5225C4.24017 18.5225 4.61084 18.1813 4.61084 17.5058L4.60565 17.5092ZM10.933 17.4885C10.9425 16.9433 10.8344 16.4024 10.6162 15.9027C10.3981 15.403 10.0748 14.9561 9.66857 14.5924C8.86229 13.8244 7.7872 13.4028 6.67377 13.418C5.81938 13.4124 4.98258 13.6608 4.26962 14.1317C5.04433 14.2884 5.74098 14.7083 6.24137 15.3201C6.74176 15.9319 7.01509 16.6981 7.01499 17.4885C7.01588 18.2706 6.73975 19.0279 6.23555 19.6259C5.74568 20.2448 5.05538 20.6735 4.28348 20.8383C5.00312 21.2947 5.83555 21.5418 6.68763 21.552C7.80106 21.5672 8.87614 21.1456 9.68242 20.3776C10.0864 20.014 10.4076 19.5679 10.6242 19.0695C10.8409 18.571 10.948 18.0319 10.9382 17.4885H10.933Z" fill="black"/>
<path d="M24.0988 17.5265C24.1208 19.1326 23.5679 20.6936 22.5399 21.9278C21.443 23.2823 20.0792 23.9595 18.4487 23.9595C16.6762 23.9595 15.5371 23.1074 15.0313 21.403C14.987 21.2647 14.9591 21.1217 14.9482 20.9769C14.9482 20.2101 15.3725 19.8268 16.2213 19.8268C16.5677 19.8268 16.9487 20.1143 17.3887 20.6928C17.8286 21.2713 18.2149 21.5589 18.5561 21.5589C19.518 21.5589 20.2957 21.1183 20.8893 20.2373C21.4338 19.4495 21.7163 18.51 21.6964 17.5525C21.7118 17.0002 21.6104 16.4508 21.3988 15.9404C21.1872 15.43 20.8701 14.97 20.4684 14.5906C20.0694 14.2063 19.5983 13.9048 19.0822 13.7036C18.5661 13.5023 18.0152 13.4053 17.4614 13.418C15.682 13.418 14.3829 14.2194 13.5642 15.8222C13.2819 16.3574 12.9303 16.6241 12.5059 16.6241C11.7715 16.6241 11.4043 16.2165 11.4043 15.4013C11.4071 15.2429 11.4358 15.0861 11.4892 14.9371C12.361 12.3216 14.3431 11.0139 17.4355 11.0139C19.3477 11.0139 20.9366 11.6276 22.2022 12.8551C23.4678 14.0826 24.1 15.6397 24.0988 17.5265Z" fill="black"/>
<path d="M13.3371 17.4885C13.3371 19.336 12.6974 20.8776 11.418 22.1132C10.1385 23.3487 8.55714 23.9653 6.67377 23.963C4.765 23.9607 3.17551 23.3499 1.90531 22.1305C0.635102 20.9111 0 19.3626 0 17.485C0 15.6374 0.639722 14.0959 1.91916 12.8603C3.19861 11.6247 4.78059 11.0081 6.66511 11.0104C8.57734 11.0104 10.1657 11.6201 11.4301 12.8395C12.6945 14.0589 13.3302 15.6086 13.3371 17.4885ZM4.60565 17.5092C4.60565 16.8164 4.24017 16.4544 3.50923 16.4544C2.77828 16.4544 2.41281 16.8008 2.41281 17.5092C2.41281 18.2177 2.77828 18.5225 3.50923 18.5225C4.24017 18.5225 4.61084 18.1813 4.61084 17.5058L4.60565 17.5092ZM10.933 17.4885C10.9425 16.9433 10.8344 16.4024 10.6162 15.9027C10.3981 15.403 10.0748 14.9561 9.66857 14.5924C8.86229 13.8244 7.7872 13.4028 6.67377 13.418C5.81938 13.4124 4.98258 13.6608 4.26962 14.1317C5.04433 14.2884 5.74098 14.7083 6.24137 15.3201C6.74176 15.9319 7.01509 16.6981 7.01499 17.4885C7.01588 18.2706 6.73975 19.0279 6.23555 19.6259C5.74568 20.2448 5.05538 20.6735 4.28348 20.8383C5.00312 21.2947 5.83555 21.5418 6.68763 21.552C7.80106 21.5672 8.87614 21.1456 9.68242 20.3776C10.0864 20.014 10.4076 19.5679 10.6242 19.0695C10.8409 18.571 10.948 18.0319 10.9382 17.4885H10.933Z" fill="black"/>
<path d="M24.0988 17.5265C24.1208 19.1326 23.5679 20.6936 22.5399 21.9278C21.443 23.2823 20.0792 23.9595 18.4487 23.9595C16.6762 23.9595 15.5371 23.1074 15.0313 21.403C14.987 21.2647 14.9591 21.1217 14.9482 20.9769C14.9482 20.2101 15.3725 19.8268 16.2213 19.8268C16.5677 19.8268 16.9487 20.1143 17.3887 20.6928C17.8286 21.2713 18.2149 21.5589 18.5561 21.5589C19.518 21.5589 20.2957 21.1183 20.8893 20.2373C21.4338 19.4495 21.7163 18.51 21.6964 17.5525C21.7118 17.0002 21.6104 16.4508 21.3988 15.9404C21.1872 15.43 20.8701 14.97 20.4684 14.5906C20.0694 14.2063 19.5983 13.9048 19.0822 13.7036C18.5661 13.5023 18.0152 13.4053 17.4614 13.418C15.682 13.418 14.3829 14.2194 13.5642 15.8222C13.2819 16.3574 12.9303 16.6241 12.5059 16.6241C11.7715 16.6241 11.4043 16.2165 11.4043 15.4013C11.4071 15.2429 11.4358 15.0861 11.4892 14.9371C12.361 12.3216 14.3431 11.0139 17.4355 11.0139C19.3477 11.0139 20.9366 11.6276 22.2022 12.8551C23.4678 14.0826 24.1 15.6397 24.0988 17.5265Z" fill="black"/>
<path d="M39.6831 17.5254C39.6831 19.373 39.0434 20.9145 37.7639 22.1501C36.4845 23.3857 34.9031 24.0023 33.0197 24C31.1052 24 29.5162 23.3903 28.253 22.1709C26.9897 20.9515 26.3546 19.403 26.3477 17.5254C26.3477 15.0035 27.2333 13.1403 29.0047 11.9359C29.2135 11.7827 29.463 11.6947 29.7218 11.683C30.537 11.683 30.9446 12.1028 30.9446 12.9423C30.9442 13.1369 30.8937 13.328 30.7978 13.4974C30.7019 13.6667 30.564 13.8084 30.3973 13.9088C29.313 14.6628 28.7709 15.8666 28.7709 17.5202C28.7619 18.066 28.8703 18.6073 29.0888 19.1076C29.3072 19.6078 29.6306 20.0553 30.037 20.4197C30.8253 21.1555 31.8577 21.574 32.9358 21.5947C34.0139 21.6155 35.0616 21.2372 35.8777 20.5323C36.2747 20.2077 36.6012 19.8052 36.8371 19.3498C37.073 18.8944 37.2133 18.3956 37.2495 17.884C36.6595 18.2687 35.9706 18.4739 35.2662 18.4746C34.8072 18.4814 34.3515 18.3955 33.9265 18.222C33.5015 18.0485 33.1159 17.7909 32.7928 17.4648C32.4624 17.1483 32.2003 16.7676 32.0225 16.346C31.8447 15.9245 31.755 15.471 31.7589 15.0136C31.7628 14.5561 31.8602 14.1042 32.0451 13.6858C32.2301 13.2673 32.4987 12.8911 32.8344 12.5803C33.1654 12.2513 33.5585 11.9915 33.9909 11.8157C34.4232 11.64 34.8862 11.5519 35.3528 11.5566C36.9279 11.5566 38.123 12.3972 38.9383 14.0785C39.4421 15.157 39.6966 16.3351 39.6831 17.5254ZM36.3574 15.0399C36.3574 14.3228 35.9914 13.9642 35.2593 13.9642C35.0324 13.974 34.813 14.0485 34.6271 14.179L34.3742 14.4371C34.2511 14.6155 34.1782 14.8237 34.1629 15.0399C34.1629 15.7327 34.5284 16.0791 35.2593 16.0791C35.9902 16.0791 36.3563 15.7327 36.3574 15.0399Z" fill="black"/>
<path d="M65.1451 17.5253C65.1533 18.3784 64.9853 19.224 64.6515 20.0091C64.3176 20.7942 63.8252 21.5018 63.2051 22.0877C62.6073 22.6993 61.8918 23.1835 61.1017 23.5109C60.3116 23.8384 59.4633 24.0024 58.6081 23.993C57.7392 24.0101 56.8856 23.7624 56.1607 23.2828C55.3454 22.7551 54.9378 22.0455 54.9378 21.1541C54.9378 20.4035 55.3454 20.0282 56.1607 20.0282C56.4136 20.0282 56.779 20.288 57.2571 20.8077C57.7352 21.3273 58.2132 21.5877 58.6913 21.5888C59.2238 21.5937 59.7516 21.4885 60.2416 21.2799C60.7316 21.0712 61.1733 20.7636 61.5388 20.3764C61.9221 20.0072 62.2264 19.5639 62.433 19.0735C62.6397 18.5831 62.7444 18.0558 62.7409 17.5236C62.7499 16.9778 62.6409 16.4366 62.4215 15.9368C62.2021 15.4369 61.8774 14.9904 61.4696 14.6275C60.6575 13.8587 59.5773 13.4374 58.4592 13.4532C57.3812 13.4461 56.3364 13.8259 55.5146 14.5236C55.1078 14.8382 54.7795 15.2428 54.5553 15.7056C54.3311 16.1684 54.2172 16.6768 54.2225 17.1911V18.1576C54.1953 18.2391 54.1813 18.3245 54.1809 18.4104C54.0962 19.1919 53.8574 19.9488 53.4783 20.6373C53.0993 21.3259 52.5874 21.9325 51.9725 22.422C50.7436 23.4564 49.1844 24.0157 47.5781 23.9982C45.6728 23.9982 44.0891 23.3885 42.827 22.1691C41.5649 20.9497 40.9344 19.4012 40.9355 17.5236C40.9355 15.676 41.5753 14.1345 42.8547 12.8989C44.1342 11.6634 45.715 11.049 47.5972 11.056C49.9067 11.056 51.7202 11.9699 53.0377 13.7979C54.3599 11.9699 56.1734 11.056 58.4782 11.056C60.3905 11.056 61.9794 11.6657 63.245 12.8851C64.5105 14.1045 65.1439 15.6512 65.1451 17.5253ZM51.8079 17.8596V17.1893C51.815 16.6758 51.7032 16.1676 51.4811 15.7046C51.259 15.2415 50.9328 14.8361 50.5279 14.5202C49.712 13.8217 48.6712 13.4416 47.5972 13.4497C46.4837 13.4341 45.4085 13.8557 44.6024 14.6241C44.2032 14.9933 43.8847 15.4411 43.6669 15.9394C43.4491 16.4376 43.3366 16.9755 43.3366 17.5193C43.3366 18.0631 43.4491 18.601 43.6669 19.0992C43.8847 19.5974 44.2032 20.0452 44.6024 20.4145C45.4079 21.1839 46.4834 21.6063 47.5972 21.5906C48.6712 21.5987 49.712 21.2186 50.5279 20.5201C50.9314 20.2049 51.2568 19.8009 51.4788 19.3395C51.7008 18.878 51.8134 18.3717 51.8079 17.8596Z" fill="black"/>
<path d="M39.6831 17.5254C39.6831 19.373 39.0434 20.9145 37.7639 22.1501C36.4845 23.3857 34.9031 24.0023 33.0197 24C31.1052 24 29.5162 23.3903 28.253 22.1709C26.9897 20.9515 26.3546 19.403 26.3477 17.5254C26.3477 15.0035 27.2333 13.1403 29.0047 11.9359C29.2135 11.7827 29.463 11.6947 29.7218 11.683C30.537 11.683 30.9446 12.1028 30.9446 12.9423C30.9442 13.1369 30.8937 13.328 30.7978 13.4974C30.7019 13.6667 30.564 13.8084 30.3973 13.9088C29.313 14.6628 28.7709 15.8666 28.7709 17.5202C28.7619 18.066 28.8703 18.6073 29.0888 19.1076C29.3072 19.6078 29.6306 20.0553 30.037 20.4197C30.8253 21.1555 31.8577 21.574 32.9358 21.5947C34.0139 21.6155 35.0616 21.2372 35.8777 20.5323C36.2747 20.2077 36.6012 19.8052 36.8371 19.3498C37.073 18.8944 37.2133 18.3956 37.2495 17.884C36.6595 18.2687 35.9706 18.4739 35.2662 18.4746C34.8072 18.4814 34.3515 18.3955 33.9265 18.222C33.5015 18.0485 33.1159 17.7909 32.7928 17.4648C32.4624 17.1483 32.2003 16.7676 32.0225 16.346C31.8447 15.9245 31.755 15.471 31.7589 15.0136C31.7628 14.5561 31.8602 14.1042 32.0451 13.6858C32.2301 13.2673 32.4987 12.8911 32.8344 12.5803C33.1654 12.2513 33.5585 11.9915 33.9909 11.8157C34.4232 11.64 34.8862 11.5519 35.3528 11.5566C36.9279 11.5566 38.123 12.3972 38.9383 14.0785C39.4421 15.157 39.6966 16.3351 39.6831 17.5254ZM36.3574 15.0399C36.3574 14.3228 35.9914 13.9642 35.2593 13.9642C35.0324 13.974 34.813 14.0485 34.6271 14.179L34.3742 14.4371C34.2511 14.6155 34.1782 14.8237 34.1629 15.0399C34.1629 15.7327 34.5284 16.0791 35.2593 16.0791C35.9902 16.0791 36.3563 15.7327 36.3574 15.0399Z" fill="black"/>
<path d="M65.1451 17.5253C65.1533 18.3784 64.9853 19.224 64.6515 20.0091C64.3176 20.7942 63.8252 21.5018 63.2051 22.0877C62.6073 22.6993 61.8918 23.1835 61.1017 23.5109C60.3116 23.8384 59.4633 24.0024 58.6081 23.993C57.7392 24.0101 56.8856 23.7624 56.1607 23.2828C55.3454 22.7551 54.9378 22.0455 54.9378 21.1541C54.9378 20.4035 55.3454 20.0282 56.1607 20.0282C56.4136 20.0282 56.779 20.288 57.2571 20.8077C57.7352 21.3273 58.2132 21.5877 58.6913 21.5888C59.2238 21.5937 59.7516 21.4885 60.2416 21.2799C60.7316 21.0712 61.1733 20.7636 61.5388 20.3764C61.9221 20.0072 62.2264 19.5639 62.433 19.0735C62.6397 18.5831 62.7444 18.0558 62.7409 17.5236C62.7499 16.9778 62.6409 16.4366 62.4215 15.9368C62.2021 15.4369 61.8774 14.9904 61.4696 14.6275C60.6575 13.8587 59.5773 13.4374 58.4592 13.4532C57.3812 13.4461 56.3364 13.8259 55.5146 14.5236C55.1078 14.8382 54.7795 15.2428 54.5553 15.7056C54.3311 16.1684 54.2172 16.6768 54.2225 17.1911V18.1576C54.1953 18.2391 54.1813 18.3245 54.1809 18.4104C54.0962 19.1919 53.8574 19.9488 53.4783 20.6373C53.0993 21.3259 52.5874 21.9325 51.9725 22.422C50.7436 23.4564 49.1844 24.0157 47.5781 23.9982C45.6728 23.9982 44.0891 23.3885 42.827 22.1691C41.5649 20.9497 40.9344 19.4012 40.9355 17.5236C40.9355 15.676 41.5753 14.1345 42.8547 12.8989C44.1342 11.6634 45.715 11.049 47.5972 11.056C49.9067 11.056 51.7202 11.9699 53.0377 13.7979C54.3599 11.9699 56.1734 11.056 58.4782 11.056C60.3905 11.056 61.9794 11.6657 63.245 12.8851C64.5105 14.1045 65.1439 15.6512 65.1451 17.5253ZM51.8079 17.8596V17.1893C51.815 16.6758 51.7032 16.1676 51.4811 15.7046C51.259 15.2415 50.9328 14.8361 50.5279 14.5202C49.712 13.8217 48.6712 13.4416 47.5972 13.4497C46.4837 13.4341 45.4085 13.8557 44.6024 14.6241C44.2032 14.9933 43.8847 15.4411 43.6669 15.9394C43.4491 16.4376 43.3366 16.9755 43.3366 17.5193C43.3366 18.0631 43.4491 18.601 43.6669 19.0992C43.8847 19.5974 44.2032 20.0452 44.6024 20.4145C45.4079 21.1839 46.4834 21.6063 47.5972 21.5906C48.6712 21.5987 49.712 21.2186 50.5279 20.5201C50.9314 20.2049 51.2568 19.8009 51.4788 19.3395C51.7008 18.878 51.8134 18.3717 51.8079 17.8596Z" fill="black"/>
<path d="M63.0475 8.60333C63.0242 8.7904 62.9552 8.96886 62.8466 9.12296C61.8437 10.6385 60.3455 11.056 58.7363 11.056C57.1272 11.056 55.7467 10.5363 54.6659 9.49709C53.5851 8.45783 53.0447 7.13451 53.0447 5.53059C53.0259 4.79427 53.1621 4.06221 53.4443 3.38188C53.7266 2.70156 54.1487 2.08814 54.6832 1.58141C55.7756 0.528291 57.1267 0.00115473 58.7363 0C60.6994 0 62.1878 0.69688 63.2017 2.09064C63.5388 2.54944 63.7159 3.10626 63.7057 3.67551C63.7057 4.80311 61.9494 4.55888 61.8264 3.90068C61.7613 3.61989 61.6375 3.35605 61.4631 3.12649C61.2888 2.89693 61.0679 2.70684 60.8149 2.5687C60.7112 2.50796 60.6042 2.45303 60.4944 2.40415C59.9392 2.16556 59.3406 2.04466 58.7363 2.04907C57.7853 2.03601 56.8669 2.39602 56.178 3.05195C55.8372 3.36736 55.5653 3.74982 55.3793 4.17531C55.1934 4.60081 55.0974 5.06016 55.0974 5.52453C55.0974 5.98889 55.1934 6.44824 55.3793 6.87373C55.5653 7.29923 55.8372 7.68169 56.178 7.99709C56.871 8.66685 57.7902 9.05197 58.7537 9.07619C59.857 9.10044 60.6953 9.11083 61.2028 8.14952C61.2861 7.96872 61.4276 7.82111 61.6048 7.73034C61.7819 7.63958 61.9844 7.61091 62.1798 7.64894C62.7721 7.71303 63.0926 8.09582 63.0475 8.60333Z" fill="black"/>
</svg>
