<svg width="67" height="25" viewBox="0 0 67 25" fill="none" xmlns="http://www.w3.org/2000/svg">
<path d="M13.668 17.9223C13.668 19.8157 13.0124 21.3956 11.7013 22.6618C10.3901 23.928 8.76943 24.5599 6.83934 24.5575C4.88321 24.5552 3.25429 23.9292 1.95258 22.6795C0.650859 21.4299 0 19.843 0 17.9188C0 16.0254 0.655593 14.4456 1.96678 13.1793C3.27796 11.9131 4.89919 11.2812 6.83047 11.2836C8.79014 11.2836 10.4179 11.9084 11.7137 13.158C13.0095 14.4077 13.6609 15.9958 13.668 17.9223ZM4.71991 17.9436C4.71991 17.2336 4.34537 16.8626 3.59629 16.8626C2.84721 16.8626 2.47267 17.2176 2.47267 17.9436C2.47267 18.6696 2.84721 18.9821 3.59629 18.9821C4.34537 18.9821 4.72523 18.6324 4.72523 17.9401L4.71991 17.9436ZM11.2042 17.9223C11.2139 17.3636 11.1032 16.8094 10.8796 16.2972C10.656 15.7851 10.3248 15.3271 9.90844 14.9544C9.08216 14.1673 7.98039 13.7353 6.83934 13.7509C5.96375 13.7452 5.1062 13.9997 4.37554 14.4823C5.16948 14.6429 5.8834 15.0732 6.39621 15.7002C6.90902 16.3272 7.18913 17.1123 7.18903 17.9223C7.18994 18.7239 6.90695 19.4999 6.39025 20.1128C5.88823 20.747 5.1808 21.1864 4.38975 21.3553C5.12724 21.823 5.98033 22.0762 6.85354 22.0866C7.99459 22.1023 9.09635 21.6702 9.92264 20.8831C10.3366 20.5106 10.6658 20.0534 10.8878 19.5426C11.1099 19.0318 11.2196 18.4792 11.2096 17.9223H11.2042Z" fill="black"/>
<path d="M24.6965 17.9614C24.7191 19.6073 24.1525 21.207 23.099 22.4718C21.9748 23.8599 20.5772 24.554 18.9062 24.554C17.0898 24.554 15.9224 23.6806 15.404 21.934C15.3586 21.7923 15.33 21.6457 15.3188 21.4973C15.3188 20.7115 15.7537 20.3187 16.6235 20.3187C16.9785 20.3187 17.369 20.6133 17.8199 21.2062C18.2708 21.7991 18.6666 22.0937 19.0163 22.0937C20.0021 22.0937 20.7991 21.6423 21.4073 20.7394C21.9654 19.932 22.2549 18.9693 22.2345 17.988C22.2503 17.422 22.1464 16.859 21.9295 16.3359C21.7126 15.8128 21.3877 15.3414 20.976 14.9526C20.5671 14.5588 20.0843 14.2498 19.5554 14.0436C19.0265 13.8373 18.462 13.7378 17.8945 13.7509C16.0709 13.7509 14.7396 14.5722 13.9006 16.2147C13.6112 16.7632 13.2509 17.0366 12.816 17.0366C12.0634 17.0366 11.687 16.6188 11.687 15.7834C11.6899 15.6211 11.7193 15.4604 11.774 15.3076C12.6675 12.6273 14.6987 11.2871 17.8678 11.2871C19.8275 11.2871 21.4558 11.9161 22.7528 13.174C24.0498 14.4319 24.6977 16.0277 24.6965 17.9614Z" fill="black"/>
<path d="M13.668 17.9223C13.668 19.8157 13.0124 21.3956 11.7013 22.6618C10.3901 23.928 8.76943 24.5599 6.83934 24.5575C4.88321 24.5552 3.25429 23.9292 1.95258 22.6795C0.650859 21.4299 0 19.843 0 17.9188C0 16.0254 0.655593 14.4456 1.96678 13.1793C3.27796 11.9131 4.89919 11.2812 6.83047 11.2836C8.79014 11.2836 10.4179 11.9084 11.7137 13.158C13.0095 14.4077 13.6609 15.9958 13.668 17.9223ZM4.71991 17.9436C4.71991 17.2336 4.34537 16.8626 3.59629 16.8626C2.84721 16.8626 2.47267 17.2176 2.47267 17.9436C2.47267 18.6696 2.84721 18.9821 3.59629 18.9821C4.34537 18.9821 4.72523 18.6324 4.72523 17.9401L4.71991 17.9436ZM11.2042 17.9223C11.2139 17.3636 11.1032 16.8094 10.8796 16.2972C10.656 15.7851 10.3248 15.3271 9.90844 14.9544C9.08216 14.1673 7.98039 13.7353 6.83934 13.7509C5.96375 13.7452 5.1062 13.9997 4.37554 14.4823C5.16948 14.6429 5.8834 15.0732 6.39621 15.7002C6.90902 16.3272 7.18913 17.1123 7.18903 17.9223C7.18994 18.7239 6.90695 19.4999 6.39025 20.1128C5.88823 20.747 5.1808 21.1864 4.38975 21.3553C5.12724 21.823 5.98033 22.0762 6.85354 22.0866C7.99459 22.1023 9.09635 21.6702 9.92264 20.8831C10.3366 20.5106 10.6658 20.0534 10.8878 19.5426C11.1099 19.0318 11.2196 18.4792 11.2096 17.9223H11.2042Z" fill="#073B4C"/>
<path d="M24.6965 17.9614C24.7191 19.6073 24.1525 21.207 23.099 22.4718C21.9748 23.8599 20.5772 24.554 18.9062 24.554C17.0898 24.554 15.9224 23.6806 15.404 21.934C15.3586 21.7923 15.33 21.6457 15.3188 21.4973C15.3188 20.7115 15.7537 20.3187 16.6235 20.3187C16.9785 20.3187 17.369 20.6133 17.8199 21.2062C18.2708 21.7991 18.6666 22.0937 19.0163 22.0937C20.0021 22.0937 20.7991 21.6423 21.4073 20.7394C21.9654 19.932 22.2549 18.9693 22.2345 17.988C22.2503 17.422 22.1464 16.859 21.9295 16.3359C21.7126 15.8128 21.3877 15.3414 20.976 14.9526C20.5671 14.5588 20.0843 14.2498 19.5554 14.0436C19.0265 13.8373 18.462 13.7378 17.8945 13.7509C16.0709 13.7509 14.7396 14.5722 13.9006 16.2147C13.6112 16.7632 13.2509 17.0366 12.816 17.0366C12.0634 17.0366 11.687 16.6188 11.687 15.7834C11.6899 15.6211 11.7193 15.4604 11.774 15.3076C12.6675 12.6273 14.6987 11.2871 17.8678 11.2871C19.8275 11.2871 21.4558 11.9161 22.7528 13.174C24.0498 14.4319 24.6977 16.0277 24.6965 17.9614Z" fill="#073B4C"/>
<path d="M40.668 17.9602C40.668 19.8536 40.0124 21.4334 38.7013 22.6996C37.3901 23.9659 35.7694 24.5978 33.8393 24.5954C31.8773 24.5954 30.249 23.9706 28.9543 22.7209C27.6597 21.4713 27.0089 19.8844 27.0018 17.9602C27.0018 15.3757 27.9094 13.4663 29.7247 12.2321C29.9387 12.075 30.1944 11.9848 30.4596 11.9729C31.2951 11.9729 31.7128 12.4031 31.7128 13.2634C31.7124 13.4628 31.6606 13.6587 31.5623 13.8322C31.464 14.0057 31.3227 14.151 31.1519 14.2539C30.0407 15.0266 29.4851 16.2603 29.4851 17.9549C29.4759 18.5142 29.587 19.069 29.8109 19.5817C30.0348 20.0943 30.3662 20.5529 30.7827 20.9263C31.5905 21.6804 32.6485 22.1092 33.7533 22.1305C34.8582 22.1518 35.9319 21.764 36.7682 21.0417C37.1751 20.709 37.5097 20.2966 37.7514 19.8299C37.9932 19.3632 38.137 18.852 38.1741 18.3276C37.5695 18.7219 36.8634 18.9322 36.1416 18.9329C35.6712 18.9399 35.2042 18.8519 34.7687 18.674C34.3331 18.4962 33.9379 18.2323 33.6068 17.8981C33.2682 17.5737 32.9996 17.1836 32.8174 16.7516C32.6352 16.3196 32.5432 15.8549 32.5472 15.386C32.5512 14.9172 32.651 14.4541 32.8406 14.0253C33.0301 13.5965 33.3054 13.2109 33.6494 12.8924C33.9887 12.5553 34.3916 12.289 34.8346 12.1089C35.2777 11.9288 35.7521 11.8385 36.2304 11.8433C37.8445 11.8433 39.0693 12.7048 39.9048 14.4278C40.421 15.5331 40.6819 16.7404 40.668 17.9602ZM37.2599 15.413C37.2599 14.6781 36.8848 14.3107 36.1345 14.3107C35.902 14.3207 35.6771 14.3971 35.4866 14.5308L35.2274 14.7953C35.1013 14.9781 35.0266 15.1914 35.0109 15.413C35.0109 16.123 35.3854 16.478 36.1345 16.478C36.8836 16.478 37.2587 16.123 37.2599 15.413Z" fill="black"/>
<path d="M66.7616 17.9601C66.77 18.8344 66.5978 19.7009 66.2557 20.5055C65.9136 21.31 65.409 22.0353 64.7735 22.6357C64.1608 23.2625 63.4275 23.7586 62.6179 24.0942C61.8082 24.4298 60.9389 24.5979 60.0625 24.5883C59.1719 24.6057 58.2971 24.3519 57.5543 23.8605C56.7188 23.3197 56.3011 22.5925 56.3011 21.6789C56.3011 20.9097 56.7188 20.5251 57.5543 20.5251C57.8134 20.5251 58.188 20.7914 58.6779 21.3239C59.1678 21.8564 59.6577 22.1233 60.1477 22.1245C60.6934 22.1294 61.2343 22.0216 61.7365 21.8078C62.2386 21.594 62.6912 21.2788 63.0659 20.8819C63.4587 20.5036 63.7704 20.0493 63.9822 19.5467C64.194 19.0441 64.3014 18.5037 64.2978 17.9584C64.3069 17.3991 64.1953 16.8443 63.9704 16.3321C63.7455 15.8199 63.4128 15.3623 62.9949 14.9905C62.1626 14.2026 61.0557 13.7707 59.9098 13.787C58.805 13.7797 57.7343 14.1689 56.8922 14.8839C56.4753 15.2064 56.1388 15.621 55.9091 16.0953C55.6793 16.5695 55.5626 17.0906 55.568 17.6176V18.608C55.5402 18.6916 55.5258 18.7791 55.5254 18.8672C55.4386 19.668 55.1938 20.4437 54.8054 21.1493C54.4169 21.855 53.8924 22.4766 53.2622 22.9783C52.0028 24.0384 50.4049 24.6115 48.7588 24.5936C46.8062 24.5936 45.1832 23.9688 43.8898 22.7191C42.5964 21.4695 41.9502 19.8825 41.9514 17.9584C41.9514 16.065 42.607 14.4851 43.9182 13.2189C45.2294 11.9527 46.8494 11.3232 48.7783 11.3303C51.1451 11.3303 53.0036 12.2669 54.3538 14.1402C55.7088 12.2669 57.5673 11.3303 59.9293 11.3303C61.889 11.3303 63.5173 11.9551 64.8143 13.2047C66.1113 14.4544 66.7604 16.0395 66.7616 17.9601ZM53.0935 18.3027V17.6158C53.1008 17.0895 52.9862 16.5687 52.7586 16.0942C52.531 15.6196 52.1967 15.2042 51.7817 14.8804C50.9456 14.1646 49.879 13.7751 48.7783 13.7834C47.6372 13.7674 46.5353 14.1995 45.7092 14.9869C45.3002 15.3653 44.9738 15.8242 44.7505 16.3348C44.5273 16.8454 44.4121 17.3967 44.4121 17.9539C44.4121 18.5112 44.5273 19.0624 44.7505 19.573C44.9738 20.0836 45.3002 20.5425 45.7092 20.921C46.5347 21.7095 47.6369 22.1423 48.7783 22.1262C49.879 22.1346 50.9456 21.745 51.7817 21.0292C52.1953 20.7062 52.5287 20.2921 52.7562 19.8193C52.9837 19.3464 53.0992 18.8274 53.0935 18.3027Z" fill="black"/>
<path d="M40.668 17.9602C40.668 19.8536 40.0124 21.4334 38.7013 22.6996C37.3901 23.9659 35.7694 24.5978 33.8393 24.5954C31.8773 24.5954 30.249 23.9706 28.9543 22.7209C27.6597 21.4713 27.0089 19.8844 27.0018 17.9602C27.0018 15.3757 27.9094 13.4663 29.7247 12.2321C29.9387 12.075 30.1944 11.9848 30.4596 11.9729C31.2951 11.9729 31.7128 12.4031 31.7128 13.2634C31.7124 13.4628 31.6606 13.6587 31.5623 13.8322C31.464 14.0057 31.3227 14.151 31.1519 14.2539C30.0407 15.0266 29.4851 16.2603 29.4851 17.9549C29.4759 18.5142 29.587 19.069 29.8109 19.5817C30.0348 20.0943 30.3662 20.5529 30.7827 20.9263C31.5905 21.6804 32.6485 22.1092 33.7533 22.1305C34.8582 22.1518 35.9319 21.764 36.7682 21.0417C37.1751 20.709 37.5097 20.2966 37.7514 19.8299C37.9932 19.3632 38.137 18.852 38.1741 18.3276C37.5695 18.7219 36.8634 18.9322 36.1416 18.9329C35.6712 18.9399 35.2042 18.8519 34.7687 18.674C34.3331 18.4962 33.9379 18.2323 33.6068 17.8981C33.2682 17.5737 32.9996 17.1836 32.8174 16.7516C32.6352 16.3196 32.5432 15.8549 32.5472 15.386C32.5512 14.9172 32.651 14.4541 32.8406 14.0253C33.0301 13.5965 33.3054 13.2109 33.6494 12.8924C33.9887 12.5553 34.3916 12.289 34.8346 12.1089C35.2777 11.9288 35.7521 11.8385 36.2304 11.8433C37.8445 11.8433 39.0693 12.7048 39.9048 14.4278C40.421 15.5331 40.6819 16.7404 40.668 17.9602ZM37.2599 15.413C37.2599 14.6781 36.8848 14.3107 36.1345 14.3107C35.902 14.3207 35.6771 14.3971 35.4866 14.5308L35.2274 14.7953C35.1013 14.9781 35.0266 15.1914 35.0109 15.413C35.0109 16.123 35.3854 16.478 36.1345 16.478C36.8836 16.478 37.2587 16.123 37.2599 15.413Z" fill="#073B4C"/>
<path d="M66.7616 17.9601C66.77 18.8344 66.5978 19.7009 66.2557 20.5055C65.9136 21.31 65.409 22.0353 64.7735 22.6357C64.1608 23.2625 63.4275 23.7586 62.6179 24.0942C61.8082 24.4298 60.9389 24.5979 60.0625 24.5883C59.1719 24.6057 58.2971 24.3519 57.5543 23.8605C56.7188 23.3197 56.3011 22.5925 56.3011 21.6789C56.3011 20.9097 56.7188 20.5251 57.5543 20.5251C57.8134 20.5251 58.188 20.7914 58.6779 21.3239C59.1678 21.8564 59.6577 22.1233 60.1477 22.1245C60.6934 22.1294 61.2343 22.0216 61.7365 21.8078C62.2386 21.594 62.6912 21.2788 63.0659 20.8819C63.4587 20.5036 63.7704 20.0493 63.9822 19.5467C64.194 19.0441 64.3014 18.5037 64.2978 17.9584C64.3069 17.3991 64.1953 16.8443 63.9704 16.3321C63.7455 15.8199 63.4128 15.3623 62.9949 14.9905C62.1626 14.2026 61.0557 13.7707 59.9098 13.787C58.805 13.7797 57.7343 14.1689 56.8922 14.8839C56.4753 15.2064 56.1388 15.621 55.9091 16.0953C55.6793 16.5695 55.5626 17.0906 55.568 17.6176V18.608C55.5402 18.6916 55.5258 18.7791 55.5254 18.8672C55.4386 19.668 55.1938 20.4437 54.8054 21.1493C54.4169 21.855 53.8924 22.4766 53.2622 22.9783C52.0028 24.0384 50.4049 24.6115 48.7588 24.5936C46.8062 24.5936 45.1832 23.9688 43.8898 22.7191C42.5964 21.4695 41.9502 19.8825 41.9514 17.9584C41.9514 16.065 42.607 14.4851 43.9182 13.2189C45.2294 11.9527 46.8494 11.3232 48.7783 11.3303C51.1451 11.3303 53.0036 12.2669 54.3538 14.1402C55.7088 12.2669 57.5673 11.3303 59.9293 11.3303C61.889 11.3303 63.5173 11.9551 64.8143 13.2047C66.1113 14.4544 66.7604 16.0395 66.7616 17.9601ZM53.0935 18.3027V17.6158C53.1008 17.0895 52.9862 16.5687 52.7586 16.0942C52.531 15.6196 52.1967 15.2042 51.7817 14.8804C50.9456 14.1646 49.879 13.7751 48.7783 13.7834C47.6372 13.7674 46.5353 14.1995 45.7092 14.9869C45.3002 15.3653 44.9738 15.8242 44.7505 16.3348C44.5273 16.8454 44.4121 17.3967 44.4121 17.9539C44.4121 18.5112 44.5273 19.0624 44.7505 19.573C44.9738 20.0836 45.3002 20.5425 45.7092 20.921C46.5347 21.7095 47.6369 22.1423 48.7783 22.1262C49.879 22.1346 50.9456 21.745 51.7817 21.0292C52.1953 20.7062 52.5287 20.2921 52.7562 19.8193C52.9837 19.3464 53.0992 18.8274 53.0935 18.3027Z" fill="#073B4C"/>
<path d="M64.6119 8.81677C64.5881 9.00849 64.5173 9.19138 64.406 9.34929C63.3783 10.9025 61.8428 11.3303 60.1938 11.3303C58.5447 11.3303 57.13 10.7977 56.0224 9.73271C54.9147 8.66766 54.3609 7.31151 54.3609 5.6678C54.3417 4.91321 54.4812 4.16299 54.7705 3.46579C55.0598 2.76858 55.4923 2.13995 56.0401 1.62064C57.1596 0.541397 58.5442 0.00118338 60.1938 0C62.2055 0 63.7309 0.71417 64.7699 2.14251C65.1154 2.61269 65.2969 3.18333 65.2865 3.7667C65.2865 4.92227 63.4865 4.67198 63.3605 3.99746C63.2937 3.70969 63.1669 3.43931 62.9882 3.20405C62.8096 2.9688 62.5831 2.77399 62.3239 2.63243C62.2176 2.57018 62.108 2.51389 61.9955 2.4638C61.4265 2.21929 60.813 2.09538 60.1938 2.09991C59.2191 2.08652 58.2779 2.45546 57.572 3.12767C57.2227 3.4509 56.9441 3.84285 56.7535 4.2789C56.5629 4.71496 56.4645 5.1857 56.4645 5.66158C56.4645 6.13747 56.5629 6.60821 56.7535 7.04427C56.9441 7.48032 57.2227 7.87227 57.572 8.1955C58.2822 8.88187 59.2242 9.27654 60.2115 9.30137C61.3423 9.32622 62.2014 9.33687 62.7215 8.3517C62.8068 8.16642 62.9518 8.01515 63.1334 7.92213C63.3149 7.82911 63.5224 7.79973 63.7226 7.83871C64.3297 7.90439 64.6581 8.29667 64.6119 8.81677Z" fill="#073B4C"/>
</svg>
