<svg width="40" height="40" viewBox="0 0 40 40" fill="none" xmlns="http://www.w3.org/2000/svg">
<circle cx="20" cy="20" r="20" fill="#248A3D" fill-opacity="0.3"/>
<path d="M24.1475 17.3525C24.2528 17.458 24.312 17.6009 24.312 17.75C24.312 17.8991 24.2528 18.042 24.1475 18.1475L18.8975 23.3975C18.792 23.5028 18.6491 23.562 18.5 23.562C18.3509 23.562 18.208 23.5028 18.1025 23.3975L15.8525 21.1475C15.7531 21.0409 15.6991 20.8998 15.7016 20.7541C15.7042 20.6084 15.7632 20.4693 15.8663 20.3663C15.9693 20.2632 16.1084 20.2042 16.2541 20.2016C16.3998 20.199 16.5409 20.2531 16.6475 20.3525L18.5 22.2041L23.3525 17.3525C23.458 17.2472 23.6009 17.188 23.75 17.188C23.8991 17.188 24.042 17.2472 24.1475 17.3525ZM29.5625 20C29.5625 21.8913 29.0017 23.7401 27.9509 25.3126C26.9002 26.8852 25.4067 28.1108 23.6594 28.8346C21.9121 29.5584 19.9894 29.7477 18.1345 29.3788C16.2795 29.0098 14.5756 28.099 13.2383 26.7617C11.901 25.4244 10.9902 23.7205 10.6212 21.8656C10.2523 20.0106 10.4416 18.0879 11.1654 16.3406C11.8892 14.5933 13.1148 13.0998 14.6874 12.0491C16.2599 10.9983 18.1087 10.4375 20 10.4375C22.5352 10.4405 24.9658 11.4489 26.7584 13.2416C28.5511 15.0343 29.5595 17.4648 29.5625 20ZM28.4375 20C28.4375 18.3312 27.9427 16.6999 27.0155 15.3124C26.0884 13.9248 24.7706 12.8434 23.2289 12.2048C21.6871 11.5662 19.9906 11.3991 18.3539 11.7246C16.7172 12.0502 15.2138 12.8538 14.0338 14.0338C12.8538 15.2138 12.0502 16.7172 11.7246 18.3539C11.3991 19.9906 11.5662 21.6871 12.2048 23.2289C12.8434 24.7706 13.9248 26.0884 15.3124 27.0155C16.6999 27.9426 18.3312 28.4375 20 28.4375C22.237 28.435 24.3817 27.5453 25.9635 25.9635C27.5453 24.3817 28.435 22.237 28.4375 20Z" fill="#248A3D"/>
</svg>
