<svg width="24" height="24" viewBox="0 0 24 24" fill="none" xmlns="http://www.w3.org/2000/svg">
<g id="bookmark_add_FILL0_wght300_GRAD0_opsz48">
<path id="Vector" d="M12 17.4614L7.52308 19.3883C7.03591 19.5922 6.57694 19.5533 6.14618 19.2718C5.71539 18.9903 5.5 18.5868 5.5 18.0614V4.84613C5.5 4.45895 5.64235 4.12177 5.92705 3.83458C6.21175 3.5474 6.55017 3.40381 6.94232 3.40381H13.548V4.53841H6.94232C6.86539 4.53841 6.79487 4.57046 6.73075 4.63456C6.66665 4.69867 6.6346 4.7692 6.6346 4.84613V18.0422C6.6346 18.1576 6.68108 18.2457 6.77403 18.3066C6.86699 18.3675 6.96476 18.3756 7.06732 18.3307L12 16.2365L16.9326 18.3307C17.0352 18.3756 17.133 18.3675 17.2259 18.3066C17.3189 18.2457 17.3654 18.1576 17.3654 18.0422V10.5384H18.5V18.0614C18.5 18.5868 18.2846 18.9903 17.8538 19.2718C17.423 19.5533 16.964 19.5922 16.4769 19.3883L12 17.4614ZM12 4.53841H6.6346H13.548H12ZM17.3654 6.72108H15.75C15.5892 6.72108 15.4545 6.66627 15.3458 6.55663C15.237 6.447 15.1827 6.31115 15.1827 6.14908C15.1827 5.99325 15.237 5.86053 15.3458 5.75093C15.4545 5.64132 15.5892 5.58651 15.75 5.58651H17.3654V3.97111C17.3654 3.81662 17.4202 3.68346 17.5299 3.57161C17.6395 3.45974 17.7754 3.40381 17.9375 3.40381C18.0997 3.40381 18.2339 3.45974 18.3403 3.57161C18.4467 3.68346 18.5 3.81662 18.5 3.97111V5.58651H20.1153C20.2761 5.58651 20.4108 5.64289 20.5195 5.75566C20.6283 5.86841 20.6826 6.0043 20.6826 6.16333C20.6826 6.32237 20.6283 6.45508 20.5195 6.56148C20.4108 6.66788 20.2761 6.72108 20.1153 6.72108H18.5V8.33648C18.5 8.49722 18.4451 8.63195 18.3354 8.74068C18.2258 8.84942 18.0899 8.90378 17.9278 8.90378C17.7656 8.90378 17.6314 8.84942 17.525 8.74068C17.4186 8.63195 17.3654 8.49722 17.3654 8.33648V6.72108Z" fill="#1F1F1F"/>
</g>
</svg>
