<svg width="101" height="100" viewBox="0 0 101 100" fill="none" xmlns="http://www.w3.org/2000/svg">
<path d="M43.5 58.9995L32.75 48.2495C31.8333 47.3328 30.6667 46.8745 29.25 46.8745C27.8333 46.8745 26.6667 47.3328 25.75 48.2495C24.8333 49.1662 24.375 50.3328 24.375 51.7495C24.375 53.1662 24.8333 54.3328 25.75 55.2495L40 69.4995C41 70.4995 42.1667 70.9995 43.5 70.9995C44.8333 70.9995 46 70.4995 47 69.4995L75.25 41.2495C76.1667 40.3328 76.625 39.1662 76.625 37.7495C76.625 36.3328 76.1667 35.1662 75.25 34.2495C74.3333 33.3328 73.1667 32.8745 71.75 32.8745C70.3333 32.8745 69.1667 33.3328 68.25 34.2495L43.5 58.9995ZM50.5 99.9995C43.5833 99.9995 37.0833 98.687 31 96.062C24.9167 93.437 19.625 89.8745 15.125 85.3745C10.625 80.8745 7.0625 75.5828 4.4375 69.4995C1.8125 63.4162 0.5 56.9162 0.5 49.9995C0.5 43.0828 1.8125 36.5828 4.4375 30.4995C7.0625 24.4162 10.625 19.1245 15.125 14.6245C19.625 10.1245 24.9167 6.56201 31 3.93701C37.0833 1.31201 43.5833 -0.000488281 50.5 -0.000488281C57.4167 -0.000488281 63.9167 1.31201 70 3.93701C76.0833 6.56201 81.375 10.1245 85.875 14.6245C90.375 19.1245 93.9375 24.4162 96.5625 30.4995C99.1875 36.5828 100.5 43.0828 100.5 49.9995C100.5 56.9162 99.1875 63.4162 96.5625 69.4995C93.9375 75.5828 90.375 80.8745 85.875 85.3745C81.375 89.8745 76.0833 93.437 70 96.062C63.9167 98.687 57.4167 99.9995 50.5 99.9995Z" fill="#008F5D"/>
</svg>
