<svg width="17" height="17" viewBox="0 0 17 17" fill="none" xmlns="http://www.w3.org/2000/svg">
<path d="M1.91699 16.3332C1.50033 16.3332 1.14616 16.1873 0.854492 15.8957C0.562826 15.604 0.416992 15.2498 0.416992 14.8332V3.6665C0.416992 3.24984 0.562826 2.89567 0.854492 2.604C1.14616 2.31234 1.50033 2.1665 1.91699 2.1665H9.04199L7.79199 3.4165H1.91699C1.86144 3.4165 1.80588 3.44428 1.75033 3.49984C1.69477 3.55539 1.66699 3.61095 1.66699 3.6665V14.8332C1.66699 14.8887 1.69477 14.9443 1.75033 14.9998C1.80588 15.0554 1.86144 15.0832 1.91699 15.0832H13.0837C13.1392 15.0832 13.1948 15.0554 13.2503 14.9998C13.3059 14.9443 13.3337 14.8887 13.3337 14.8332V8.93734L14.5837 7.68734V14.8332C14.5837 15.2498 14.4378 15.604 14.1462 15.8957C13.8545 16.1873 13.5003 16.3332 13.0837 16.3332H1.91699ZM11.2712 2.52067L12.167 3.39567L6.66699 8.89567V10.0832H7.83366L13.3753 4.56234L14.2503 5.43734L8.37533 11.3332H5.41699V8.37484L11.2712 2.52067ZM14.2503 5.43734L11.2712 2.52067L13.1878 0.604004C13.4795 0.312337 13.8373 0.166504 14.2612 0.166504C14.6845 0.166504 15.042 0.319282 15.3337 0.624837L16.1462 1.43734C16.4239 1.729 16.5628 2.08317 16.5628 2.49984C16.5628 2.9165 16.417 3.27067 16.1253 3.56234L14.2503 5.43734Z" fill="#444446"/>
</svg>
