<svg width="40" height="40" viewBox="0 0 40 40" fill="none" xmlns="http://www.w3.org/2000/svg">
<g id="Symbol">
<path id="Vector" d="M32.1953 0H7.80469C3.49219 0 0 3.49219 0 7.80469V32.1953C0 36.5078 3.49219 40 7.80469 40H32.1953C36.5078 40 40 36.5078 40 32.1953V7.80469C40 3.49219 36.5078 0 32.1953 0ZM24.1172 30.3516H10.7969C10.1641 30.3516 9.65625 29.8438 9.65625 29.2109C9.65625 28.9609 9.73438 28.7266 9.875 28.5391C9.89062 28.5234 9.89844 28.5078 9.91406 28.4844C10.0469 28.3125 10.1719 28.125 10.2812 27.9375C10.6875 27.2266 10.9219 26.4063 10.9219 25.5234C10.9219 24.6484 10.6875 23.8203 10.2812 23.1094C10.1719 22.9219 10.0469 22.7344 9.91406 22.5625C9.89844 22.5469 9.89062 22.5313 9.875 22.5156C9.73438 22.3281 9.65625 22.0938 9.65625 21.8438C9.65625 21.2188 10.1641 20.7031 10.7969 20.7031H24.1172C26.7812 20.7031 28.9453 22.8594 28.9453 25.5312C28.9375 28.1953 26.7812 30.3516 24.1172 30.3516ZM29.7188 16.8828C29.8281 17.0703 29.9531 17.2578 30.0859 17.4297C30.1016 17.4453 30.1172 17.4609 30.125 17.4844C30.1953 17.5781 30.25 17.6797 30.2891 17.7969C30.3281 17.9141 30.3438 18.0312 30.3438 18.1562C30.3438 18.7891 29.8359 19.2969 29.2031 19.2969H15.8906C13.2266 19.2969 11.0625 17.1406 11.0625 14.4688C11.0625 11.8047 13.2266 9.64062 15.8906 9.64062H29.2109C29.8359 9.64062 30.3516 10.1484 30.3516 10.7812C30.3516 11.0312 30.2734 11.2656 30.1328 11.4531C30.1172 11.4688 30.1094 11.4844 30.0938 11.5C29.9609 11.6719 29.8359 11.8594 29.7266 12.0469C29.3203 12.7578 29.0859 13.5781 29.0859 14.4531C29.0859 15.3281 29.3047 16.1719 29.7188 16.8828Z" fill="black"/>
</g>
</svg>
