<svg width="24" height="24" viewBox="0 0 24 24" fill="none" xmlns="http://www.w3.org/2000/svg">
<rect width="24" height="24" fill="#1E1E1E"/>
<g id="Home 2" clip-path="url(#clip0_7_52)">
<rect width="390" height="844" transform="translate(-16 -418)" fill="#F8F8F8"/>
<g id="Feed">
<g id="Article">
<rect width="390" height="305" transform="translate(-16 -269)" fill="white"/>
<g id="Reaction">
<g id="Frame 31">
<g id="Left">
<g id="Love Icon">
<g id="Icon / Love">
<path id="Vector" d="M11.9904 19.8364C11.8167 19.8364 11.6428 19.8049 11.4686 19.7418C11.2944 19.6788 11.1412 19.5805 11.0089 19.447L9.87115 18.4037C7.875 16.5704 6.14744 14.8181 4.68848 13.147C3.22949 11.4758 2.5 9.75436 2.5 7.98258C2.5 6.61101 2.9625 5.46268 3.8875 4.53758C4.8125 3.61246 5.95577 3.1499 7.3173 3.1499C8.09677 3.1499 8.89836 3.34766 9.72208 3.74318C10.5458 4.13869 11.3051 4.85761 12 5.89993C12.7525 4.85761 13.5221 4.13869 14.3086 3.74318C15.0952 3.34766 15.8865 3.1499 16.6827 3.1499C18.0442 3.1499 19.1875 3.61246 20.1125 4.53758C21.0375 5.46268 21.5 6.61101 21.5 7.98258C21.5 9.77359 20.7544 11.5095 19.2634 13.1903C17.7724 14.871 16.0609 16.6056 14.1288 18.3941L12.9755 19.4528C12.8456 19.5843 12.6937 19.6811 12.5197 19.7432C12.3456 19.8053 12.1692 19.8364 11.9904 19.8364ZM11.5038 7.16528C10.9833 6.23963 10.3564 5.52809 9.62305 5.03065C8.88972 4.53322 8.12113 4.2845 7.3173 4.2845C6.24293 4.2845 5.36056 4.63226 4.67018 5.32778C3.97979 6.02328 3.6346 6.91087 3.6346 7.99055C3.6346 8.86215 3.90412 9.7675 4.44315 10.7066C4.9822 11.6457 5.65944 12.5771 6.47488 13.5008C7.29031 14.4245 8.17494 15.322 9.12878 16.1931C10.0826 17.0643 10.9724 17.8748 11.798 18.6249C11.8557 18.6826 11.923 18.7114 12 18.7114C12.0769 18.7114 12.1442 18.6826 12.2019 18.6249C13.0276 17.8851 13.9173 17.0771 14.8712 16.2008C15.825 15.3245 16.7087 14.4207 17.5221 13.4893C18.3356 12.5579 19.0128 11.6225 19.5538 10.6833C20.0948 9.74404 20.3654 8.84487 20.3654 7.98575C20.3654 6.90927 20.0174 6.02328 19.3214 5.32778C18.6254 4.63226 17.745 4.2845 16.6802 4.2845C15.8613 4.2845 15.0894 4.53065 14.3644 5.02295C13.6394 5.51527 13.0064 6.22938 12.4654 7.16528C12.4013 7.26656 12.3288 7.34156 12.2481 7.39028C12.1673 7.43899 12.0779 7.46335 11.9798 7.46335C11.8817 7.46335 11.7897 7.43899 11.7038 7.39028C11.6179 7.34156 11.5513 7.26656 11.5038 7.16528Z" fill="#1F1F1F"/>
</g>
</g>
</g>
</g>
<path d="M0 -11H358V-13H0V-11Z" fill="#EEEEEE" mask="url(#path-1-inside-1_7_52)"/>
</g>
</g>
</g>
</g>
<defs>
<clipPath id="clip0_7_52">
<rect width="390" height="844" fill="white" transform="translate(-16 -418)"/>
</clipPath>
</defs>
</svg>
