<svg width="81" height="81" viewBox="0 0 81 81" fill="none" xmlns="http://www.w3.org/2000/svg">
<path d="M81 40.5C81.0072 45.9824 79.8974 51.4089 77.7384 56.4483L77.6042 56.7575C73.9521 65.0659 67.6194 71.9096 59.6189 76.1943C51.6184 80.4791 42.4121 81.9572 33.4724 80.3924C33.2292 80.3493 32.9863 80.3046 32.7439 80.2582C30.2388 79.7726 27.7857 79.0492 25.4179 78.0978C25.0333 77.9433 24.6515 77.7831 24.2724 77.6174C24.0136 77.5047 23.7548 77.3885 23.4984 77.2687C16.4839 74.0177 10.545 68.8291 6.38166 62.3146C2.21833 55.8001 0.00411789 48.2312 0 40.5C0 18.1327 18.1327 0 40.5 0C62.8672 0 81 18.1327 81 40.5Z" fill="#118AB2"/>
<path opacity="0.2" d="M33.4724 80.3925C33.2292 80.3493 32.9864 80.3046 32.7439 80.2583C32.5858 75.6679 32.043 66.2462 30.1917 56.3789C29.1792 50.9785 27.7737 45.4427 25.8242 40.494C25.1563 38.7817 24.3934 37.108 23.5392 35.4806C21.5693 31.7601 19.18 28.628 16.2827 26.5059L16.7093 25.9236C19.1189 27.6898 21.2845 30.1693 23.2061 33.3622C23.7824 34.3183 24.336 35.3384 24.8668 36.4224C25.436 37.5823 25.9788 38.8137 26.4952 40.1166C26.8247 40.9457 27.143 41.8037 27.4502 42.6903C28.7874 46.5402 29.9241 50.9329 30.8603 55.8684C31.0676 56.9588 31.2649 58.0759 31.4522 59.2198C32.9033 68.0831 33.3406 76.2778 33.4724 80.3925Z" fill="black"/>
<path opacity="0.2" d="M24.2724 77.6173C24.0136 77.5047 23.7548 77.3885 23.4984 77.2687C23.2479 74.5487 22.7878 71.1745 21.9467 67.9716C21.5783 66.5332 21.1053 65.1235 20.5316 63.7539C19.5718 61.5072 18.3292 59.5972 16.7224 58.4194L17.149 57.8383C18.8313 59.07 20.129 61.0171 21.1319 63.295C22.2618 65.8616 23.0155 68.8487 23.5175 71.7029C23.8902 73.8226 24.125 75.8703 24.2724 77.6173Z" fill="black"/>
<path opacity="0.2" d="M12.2532 26.4891C14.2444 26.4891 15.8585 24.875 15.8585 22.8839C15.8585 20.8927 14.2444 19.2786 12.2532 19.2786C10.2621 19.2786 8.64795 20.8927 8.64795 22.8839C8.64795 24.875 10.2621 26.4891 12.2532 26.4891Z" fill="black"/>
<path opacity="0.2" d="M13.4143 57.5243C15.4055 57.5243 17.0196 55.9102 17.0196 53.919C17.0196 51.9279 15.4055 50.3137 13.4143 50.3137C11.4232 50.3137 9.80902 51.9279 9.80902 53.919C9.80902 55.9102 11.4232 57.5243 13.4143 57.5243Z" fill="black"/>
<path opacity="0.2" d="M26.5664 28.9397C25.8018 33.253 27.4895 37.1586 27.4895 37.1586C27.4895 37.1586 30.4168 34.071 31.1813 29.7577C31.9458 25.4444 30.2581 21.5388 30.2581 21.5388C30.2581 21.5388 27.3309 24.6264 26.5664 28.9397Z" fill="black"/>
<path opacity="0.2" d="M14.5845 39.1785C18.6986 40.6828 22.8327 39.7174 22.8327 39.7174C22.8327 39.7174 20.2965 36.3129 16.1825 34.8086C12.0684 33.3042 7.93427 34.2696 7.93427 34.2696C7.93427 34.2696 10.4704 37.6741 14.5845 39.1785Z" fill="black"/>
<path opacity="0.2" d="M13.8869 66.6611C16.7705 67.7156 19.6723 67.0277 19.6723 67.0277C19.6723 67.0277 17.8987 64.6302 15.0151 63.5758C12.1314 62.5213 9.22968 63.2092 9.22968 63.2092C9.22968 63.2092 11.0032 65.6067 13.8869 66.6611Z" fill="black"/>
<path d="M40.4168 49.4685C49.1369 49.4685 56.2058 42.3996 56.2058 33.6795C56.2058 24.9595 49.1369 17.8905 40.4168 17.8905C31.6968 17.8905 24.6278 24.9595 24.6278 33.6795C24.6278 42.3996 31.6968 49.4685 40.4168 49.4685Z" fill="#D0CDE1"/>
<path d="M34.2493 45.7681C34.2493 45.7681 36.2229 55.1428 36.2229 56.1296C36.2229 57.1164 45.5976 61.5571 45.5976 61.5571L53.9855 60.0769L56.946 51.1955C56.946 51.1955 52.0119 43.7944 52.0119 40.834L34.2493 45.7681Z" fill="#D0CDE1"/>
<path d="M77.7384 56.4483L77.6042 56.7575C73.952 65.0659 67.6194 71.9096 59.6189 76.1943C51.6183 80.4791 42.4121 81.9572 33.4724 80.3924C33.2291 80.3493 32.9863 80.3046 32.7438 80.2582C30.2387 79.7726 27.7857 79.0492 25.4179 78.0979C25.0333 77.9433 24.6514 77.7831 24.2724 77.6174C24.0136 77.5047 23.7548 77.3885 23.4983 77.2687C21.1741 76.1919 18.9574 74.8968 16.8782 73.4008L15.0065 67.9717L16.0586 67.1689L18.2226 65.5165L20.5315 63.7539L21.1319 63.295L30.1916 56.3789L30.8602 55.8684L35.5693 52.2737L35.5705 52.2725C35.5705 52.2725 40.6629 60.5702 48.0643 58.1031C55.4658 55.636 55.304 48.5616 55.304 48.5616L77.7384 56.4483Z" fill="#2F2E41"/>
<path d="M26.7246 20.9588C26.7246 20.9588 31.7376 10.0974 41.3458 12.6039C50.9539 15.1104 56.3846 18.8701 56.8024 22.6298C57.2201 26.3895 56.5935 32.0291 56.5935 32.0291C56.5935 32.0291 55.5491 24.3008 48.8652 25.9718C42.1813 27.6428 31.7376 26.3895 31.7376 26.3895L30.0666 41.4284C30.0666 41.4284 28.1867 38.7131 26.098 40.384C24.0093 42.055 20.0407 24.3008 26.7246 20.9588Z" fill="#2F2E41"/>
<path d="M25.4179 78.0979C25.0333 77.9433 24.6515 77.7831 24.2724 77.6174C24.0136 77.5048 23.7548 77.3885 23.4984 77.2687C19.6543 75.4862 16.1131 73.1129 13.0031 70.2351C14.1043 68.7349 15.0065 67.9717 15.0065 67.9717H22.408L23.5175 71.7029L25.4179 78.0979Z" fill="#2F2E41"/>
<path d="M71.2548 55.636L77.6042 56.7575C75.905 60.6284 73.6101 64.2093 70.803 67.3702L71.2548 55.636Z" fill="#2F2E41"/>
</svg>
