<svg width="40" height="40" viewBox="0 0 40 40" fill="none" xmlns="http://www.w3.org/2000/svg">
<circle cx="20" cy="20" r="20" fill="#D70015" fill-opacity="0.3"/>
<path d="M20 10.4375C18.1087 10.4375 16.2599 10.9983 14.6874 12.0491C13.1148 13.0998 11.8892 14.5933 11.1654 16.3406C10.4416 18.0879 10.2523 20.0106 10.6212 21.8656C10.9902 23.7205 11.901 25.4244 13.2383 26.7617C14.5756 28.099 16.2795 29.0098 18.1345 29.3788C19.9894 29.7477 21.9121 29.5584 23.6594 28.8346C25.4067 28.1108 26.9002 26.8852 27.9509 25.3126C29.0017 23.7401 29.5625 21.8913 29.5625 20C29.5595 17.4648 28.5511 15.0343 26.7584 13.2416C24.9658 11.4489 22.5352 10.4405 20 10.4375ZM28.4375 20C28.4393 22.0432 27.6964 24.017 26.3478 25.5519L14.4481 13.6522C15.6674 12.5842 17.1685 11.8902 18.772 11.6532C20.3754 11.4163 22.0132 11.6465 23.4892 12.3162C24.9652 12.986 26.2169 14.0669 27.0945 15.4296C27.9721 16.7924 28.4384 18.3791 28.4375 20ZM11.5625 20C11.5607 17.9568 12.3036 15.983 13.6522 14.4481L25.5519 26.3478C24.3327 27.4158 22.8315 28.1098 21.228 28.3468C19.6246 28.5837 17.9868 28.3535 16.5108 27.6838C15.0348 27.014 13.7831 25.9331 12.9055 24.5704C12.0279 23.2076 11.5616 21.6209 11.5625 20Z" fill="#D70015"/>
</svg>
