<svg width="104" height="22" viewBox="0 0 104 22" fill="none" xmlns="http://www.w3.org/2000/svg">
<g id="Wordmark">
<path id="Vector" d="M8.46875 21.3516C6.5 21.3516 4.83594 20.9141 3.49219 20.0312C2.14844 19.1484 1.19531 17.9531 0.648438 16.4375L4.00781 14.4766C4.78906 16.5078 6.3125 17.5234 8.58594 17.5234C9.6875 17.5234 10.4922 17.3281 11 16.9297C11.5078 16.5312 11.7656 16.0312 11.7656 15.4219C11.7656 14.7188 11.4531 14.1719 10.8281 13.7891C10.2031 13.4062 9.08594 12.9766 7.46875 12.5234C6.57812 12.2578 5.82031 11.9922 5.21094 11.7266C4.59375 11.4609 3.97656 11.1016 3.35938 10.6641C2.74219 10.2188 2.27344 9.65625 1.95313 8.96875C1.63281 8.28906 1.46875 7.49219 1.46875 6.57812C1.46875 4.77344 2.10937 3.34375 3.39062 2.26562C4.67187 1.1875 6.21094 0.65625 8.01562 0.65625C9.625 0.65625 11.0469 1.04687 12.2656 1.83594C13.4922 2.625 14.4375 3.71875 15.125 5.125L11.8281 7.01562C11.0312 5.3125 9.75781 4.45312 8.01562 4.45312C7.20312 4.45312 6.5625 4.64063 6.09375 5.00781C5.625 5.375 5.39844 5.85938 5.39844 6.44531C5.39844 7.07031 5.65625 7.57812 6.17969 7.96875C6.70312 8.35938 7.70313 8.78125 9.17969 9.23438C9.78906 9.42188 10.25 9.57031 10.5625 9.67188C10.875 9.77344 11.3047 9.9375 11.8437 10.1562C12.3828 10.375 12.7969 10.5781 13.0937 10.7656C13.3906 10.9531 13.7266 11.2109 14.1016 11.5312C14.4766 11.8516 14.7656 12.1875 14.9687 12.5234C15.1719 12.8594 15.3359 13.2734 15.4766 13.7578C15.6172 14.2422 15.6875 14.7656 15.6875 15.3359C15.6875 17.1719 15.0156 18.6328 13.6797 19.7188C12.3437 20.8047 10.6094 21.3516 8.46875 21.3516Z" fill="black"/>
<path id="Vector_2" d="M29.2891 6.75V8.41406C28.1875 7.03125 26.6406 6.33594 24.6562 6.33594C22.7578 6.33594 21.1328 7.0625 19.7813 8.51562C18.4219 9.96875 17.75 11.7422 17.75 13.8516C17.75 15.9609 18.4297 17.7344 19.7813 19.1875C21.1328 20.6406 22.6719 21.3672 24.6562 21.3672C26.6406 21.3672 28.1953 20.6719 29.2891 19.2891V20.9688H32.9609V6.75H29.2891ZM28.1641 16.7344C27.4141 17.4844 26.4688 17.8594 25.3359 17.8594C24.2031 17.8594 23.2578 17.4844 22.5234 16.7344C21.7812 15.9844 21.4141 15.0234 21.4141 13.8437C21.4141 12.6719 21.7812 11.7031 22.5234 10.9609C23.2656 10.2109 24.2031 9.83594 25.3359 9.83594C26.4688 9.83594 27.4141 10.2109 28.1641 10.9609C28.9141 11.7109 29.2891 12.6719 29.2891 13.8437C29.2891 15.0234 28.9141 15.9844 28.1641 16.7344Z" fill="black"/>
<path id="Vector_3" d="M39.9531 9.17969C40.2969 8.27344 40.8594 7.58594 41.6484 7.13281C42.4375 6.67969 43.3125 6.45312 44.2812 6.45312V10.5469C43.1641 10.4141 42.1641 10.6406 41.2812 11.2266C40.3984 11.8125 39.9609 12.7891 39.9609 14.1562V20.9531H36.2891V6.73437H39.9609L39.9531 9.17969Z" fill="black"/>
<path id="Vector_4" d="M58.8359 2.97656C57.5234 1.6875 55.9141 1.03906 54 1.03906H46.5781V20.9453H50.5V14.4063H54C55.9141 14.4063 57.5234 13.7656 58.8359 12.4688C60.1484 11.1797 60.7969 9.59375 60.7969 7.71875C60.7969 5.84375 60.1484 4.26563 58.8359 2.97656ZM56.0781 9.875C55.5312 10.4531 54.8359 10.7422 54 10.7422H50.5V4.71094H54C54.8359 4.71094 55.5234 4.99219 56.0781 5.5625C56.625 6.13281 56.9062 6.86719 56.9062 7.72656C56.9062 8.58594 56.6328 9.29688 56.0781 9.875Z" fill="black"/>
<path id="Vector_5" d="M71.0937 6.33594C72.6484 6.33594 73.9297 6.85937 74.9453 7.89844C75.9609 8.94531 76.4688 10.3828 76.4688 12.2188V20.9531H72.7969V12.6797C72.7969 11.7344 72.5391 11.0078 72.0312 10.5C71.5156 10 70.8359 9.75 69.9844 9.75C69.0391 9.75 68.2813 10.0469 67.7109 10.6328C67.1406 11.2188 66.8594 12.1016 66.8594 13.2812V20.9609H63.1875V1.04688H66.8594V8.32812C67.75 7 69.1641 6.33594 71.0937 6.33594Z" fill="black"/>
<path id="Vector_6" d="M90.4063 6.75V8.41406C89.3047 7.03125 87.7578 6.33594 85.7734 6.33594C83.875 6.33594 82.25 7.0625 80.8984 8.51562C79.5391 9.96875 78.8672 11.7422 78.8672 13.8516C78.8672 15.9609 79.5469 17.7344 80.8984 19.1875C82.25 20.6406 83.7891 21.3672 85.7734 21.3672C87.7578 21.3672 89.3125 20.6719 90.4063 19.2891V20.9688H94.0781V6.75H90.4063ZM89.2812 16.7344C88.5312 17.4844 87.5859 17.8594 86.4531 17.8594C85.3125 17.8594 84.375 17.4844 83.6406 16.7344C82.8984 15.9844 82.5313 15.0234 82.5313 13.8437C82.5313 12.6719 82.8984 11.7031 83.6406 10.9609C84.3828 10.2109 85.3203 9.83594 86.4531 9.83594C87.5938 9.83594 88.5312 10.2109 89.2812 10.9609C90.0312 11.7109 90.4063 12.6719 90.4063 13.8437C90.4063 15.0234 90.0312 15.9844 89.2812 16.7344Z" fill="black"/>
<path id="Vector_7" d="M103.352 10.2578V6.73438H100.141V2.75L96.4688 3.85938V16.1719C96.4688 18.125 96.9844 19.4766 98.0156 20.2422C99.0469 21 100.828 21.2344 103.352 20.9531V17.625C102.648 17.6641 102.063 17.6641 101.586 17.6406C101.109 17.6094 100.75 17.4844 100.508 17.2578C100.258 17.0313 100.141 16.6719 100.141 16.1797V10.2656L103.352 10.2578Z" fill="black"/>
</g>
</svg>
